<svg xmlns="http://www.w3.org/2000/svg" viewBox="0 0 500 500"><g id="freepik--background-complete--inject-62"><polygon points="81.53 222.75 110.76 222.75 110.76 258.25 118.28 258.25 118.28 238.15 155.45 238.15 155.45 269.98 160.37 269.98 160.37 195.3 192.68 195.3 192.68 215.8 209.24 215.8 209.24 241.3 214.25 241.3 214.25 225.26 243.62 225.26 243.62 273.13 252.21 273.13 252.21 234.21 279.07 234.21 279.07 204.66 297.33 204.66 297.33 187.83 318.46 187.83 318.46 262.48 325.56 262.48 325.56 231.33 360.36 231.33 360.36 275.92 365.18 275.92 365.18 239.52 400.47 239.52 400.47 206.73 418.47 206.73 418.47 371.83 81.53 371.83 81.53 222.75" style="fill:#ebebeb"></polygon><path d="M90.06,234h-5v-6.79h5Zm8.57-6.79H93.68V234h4.95Zm8.57,0h-4.94V234h4.94ZM90.06,237.43h-5v6.79h5Zm8.57,0H93.68v6.79h4.95Zm8.57,0h-4.94v6.79h4.94ZM90.06,247.64h-5v6.79h5Zm8.57,0H93.68v6.79h4.95Zm8.57,0h-4.94v6.79h4.94ZM90.06,257.85h-5v6.79h5Zm8.57,0H93.68v6.79h4.95Zm8.57,0h-4.94v6.79h4.94Zm154.08-18.79h-4.94v5.67h4.94Zm8.57,0h-4.94v5.67h4.94Zm8.58,0h-4.95v5.67h4.95Zm-17.15,8.52h-4.94v5.67h4.94Zm8.57,0h-4.94v5.67h4.94Zm8.58,0h-4.95v5.67h4.95Zm-17.15,8.52h-4.94v5.66h4.94Zm8.57,0h-4.94v5.66h4.94Zm8.58,0h-4.95v5.66h4.95Zm-17.15,8.52h-4.94v5.66h4.94Zm8.57,0h-4.94v5.66h4.94Zm8.58,0h-4.95v5.66h4.95Zm-17.15,8.73h-4.94V279h4.94Zm8.57,0h-4.94V279h4.94Zm8.58,0h-4.95V279h4.95Zm-17.15,8.73h-4.94v5.66h4.94Zm8.57,0h-4.94v5.66h4.94Zm8.58,0h-4.95v5.66h4.95Zm-17.15,8.73h-4.94v5.66h4.94Zm8.57,0h-4.94v5.66h4.94Zm8.58,0h-4.95v5.66h4.95Zm-17.15,8.73h-4.94v5.66h4.94Zm8.57,0h-4.94v5.66h4.94Zm8.58,0h-4.95v5.66h4.95ZM151,242.51H122.5v4.24H151Zm0,8.23H122.5V255H151Zm0,8.24H122.5v4.25H151Zm0,8.24H122.5v4.24H151Zm0,8.23H122.5v4.25H151Zm0,8.24H122.5v4.24H151Zm0,8.23H122.5v4.25H151Zm0,8.24H122.5v4.24H151Zm205-64.87H329.77v4.24H356Zm0,8.23H329.77v4.25H356Zm0,8.24H329.77V256H356Zm0,8.23H329.77v4.25H356Zm0,8.24H329.77v4.25H356Zm0,8.24H329.77v4.24H356Zm0,8.23H329.77V289H356Zm0,8.24H329.77v4.24H356Zm0,7.82H329.77V305H356Zm0,7.83H329.77v4.24H356Zm0,7.82H329.77v4.25H356Zm0,7.83H329.77v4.24H356Zm0,7.83H329.77v4.24H356Zm42.32-86.83H370.62v4.24h27.65Zm0,8.23H370.62v4.25h27.65Zm0,8.24H370.62V266h27.65Zm0,8.23H370.62v4.25h27.65Zm0,8.24H370.62v4.24h27.65Zm0,8.23H370.62v4.25h27.65Zm0,8.24H370.62v4.24h27.65Zm0,8.24H370.62v4.24h27.65Zm0,7.37H370.62v4.24h27.65Zm0,7.37H370.62v4.24h27.65Zm0,7.37H370.62v4.24h27.65ZM231.64,229.1h-8.8v4.1h8.8Zm0,8h-8.8v4.1h8.8Zm0,7.95h-8.8v4.1h8.8Zm0,8h-8.8v4.1h8.8Zm0,8h-8.8V265h8.8Zm0,7.95h-8.8V273h8.8Zm0,8h-8.8v4.09h8.8Zm0,7.95h-8.8v4.1h8.8Zm12-55.68h-8.79v4.1h8.79Zm0,8h-8.79v4.1h8.79Zm0,7.95h-8.79v4.1h8.79Zm0,8h-8.79v4.1h8.79Zm0,8h-8.79V265h8.79Zm0,7.95h-8.79V273h8.79Zm0,8h-8.79v4.09h8.79Zm0,7.95h-8.79v4.1h8.79ZM174.43,199.6h-9.16v6.46h9.16Zm13.66,0h-9.16v6.46h9.16Zm-13.66,9.49h-9.16v6.47h9.16Zm13.66,0h-9.16v6.47h9.16Zm-13.66,9.5h-9.16v6.46h9.16Zm13.66,0h-9.16v6.46h9.16Zm-13.66,9.5h-9.16v6.46h9.16Zm13.66,0h-9.16v6.46h9.16Zm-13.66,9.49h-9.16v6.47h9.16Zm13.66,0h-9.16v6.47h9.16Zm-13.66,9.5h-9.16v6.46h9.16Zm13.66,0h-9.16v6.46h9.16Zm-13.66,9.49h-9.16V263h9.16Zm13.66,0h-9.16V263h9.16Zm-13.66,9.5h-9.16v6.46h9.16Zm13.66,0h-9.16v6.46h9.16ZM205,218.59h-9.16v6.46H205Zm0,9.5h-9.16v6.46H205Zm0,9.49h-9.16v6.47H205Zm0,9.5h-9.16v6.46H205Zm0,9.49h-9.16V263H205Zm0,9.5h-9.16v6.46H205Zm-30.58,9.38h-9.16v6.47h9.16Zm13.66,0h-9.16v6.47h9.16Zm16.92,0h-9.16v6.47H205Zm-30.58,9.38h-9.16v6.47h9.16Zm13.66,0h-9.16v6.47h9.16Zm16.92,0h-9.16v6.47H205Zm-30.58,9.39h-9.16v6.46h9.16Zm13.66,0h-9.16v6.46h9.16Zm16.92,0h-9.16v6.46H205Zm-30.58,9.38h-9.16v6.46h9.16Zm13.66,0h-9.16v6.46h9.16Zm16.92,0h-9.16v6.46H205ZM174.43,313h-9.16v6.47h9.16Zm13.66,0h-9.16v6.47h9.16ZM205,313h-9.16v6.47H205Zm82.74-104.16H282.8v5.67h4.95Zm8.57,0h-4.95v5.67h4.95Zm-8.57,8.52H282.8V223h4.95Zm8.57,0h-4.95V223h4.95Zm-8.57,8.52H282.8v5.66h4.95Zm8.57,0h-4.95v5.66h4.95Zm-8.57,8.52H282.8V240h4.95Zm8.57,0h-4.95V240h4.95Zm-8.57,8.73H282.8v5.66h4.95Zm8.57,0h-4.95v5.66h4.95Zm-8.57,8.73H282.8v5.66h4.95Zm8.57,0h-4.95v5.66h4.95Zm-8.57,8.73H282.8v5.67h4.95Zm8.57,0h-4.95v5.67h4.95Zm-8.57,8.73H282.8V275h4.95Zm8.57,0h-4.95V275h4.95Zm-8.57,8.83H282.8v5.66h4.95Zm8.57,0h-4.95v5.66h4.95ZM287.75,287H282.8v5.66h4.95Zm8.57,0h-4.95v5.66h4.95Zm-8.57,8.82H282.8v5.66h4.95Zm8.57,0h-4.95v5.66h4.95Zm-8.57,8.83H282.8v5.66h4.95Zm8.57,0h-4.95v5.66h4.95Zm112.19-94.86h-4.94v6.68h4.94Zm8.57,0h-4.94v6.68h4.94Zm-8.57,10h-4.94v6.67h4.94Zm8.57,0h-4.94v6.67h4.94Zm-8.57,10h-4.94v6.67h4.94Zm8.57,0h-4.94v6.67h4.94Zm-8.57,10h-4.94v6.68h4.94Zm8.57,0h-4.94v6.68h4.94Zm-8.57,10.29h-4.94v6.67h4.94Zm8.57,0h-4.94v6.67h4.94Zm-8.57,10.29h-4.94v6.67h4.94Zm8.57,0h-4.94v6.67h4.94Zm-8.57,10.28h-4.94v6.67h4.94Zm8.57,0h-4.94v6.67h4.94ZM408.51,281h-4.94v6.67h4.94Zm8.57,0h-4.94v6.67h4.94Zm-8.57,10.39h-4.94v6.67h4.94Zm8.57,0h-4.94v6.67h4.94Zm-8.57,10.39h-4.94v6.68h4.94Zm8.57,0h-4.94v6.68h4.94Zm-8.57,10.4h-4.94v6.67h4.94Zm8.57,0h-4.94v6.67h4.94Zm-8.57,10.39h-4.94v6.67h4.94Zm8.57,0h-4.94v6.67h4.94Zm-111-113.75h-4.95v5.67h4.95Zm8.57,0H309.7v5.67h4.95Zm-8.57-8.73h-4.95v5.66h4.95Zm8.57,0H309.7v5.66h4.95Zm-8.57-8.74h-4.95V197h4.95Zm8.57,0H309.7V197h4.95Zm-8.57,26h-4.95V223h4.95Zm8.57,0H309.7V223h4.95Zm-8.57,8.52h-4.95v5.66h4.95Zm8.57,0H309.7v5.66h4.95Zm-8.57,8.52h-4.95V240h4.95Zm8.57,0H309.7V240h4.95Zm-8.57,8.73h-4.95v5.66h4.95Zm8.57,0H309.7v5.66h4.95Zm-8.57,8.73h-4.95v5.66h4.95Zm8.57,0H309.7v5.66h4.95Zm-8.57,8.73h-4.95v5.67h4.95Zm8.57,0H309.7v5.67h4.95Zm-8.57,8.73h-4.95V275h4.95Zm8.57,0H309.7V275h4.95Zm-8.57,8.83h-4.95v5.66h4.95Zm8.57,0H309.7v5.66h4.95ZM306.08,287h-4.95v5.66h4.95Zm8.57,0H309.7v5.66h4.95Zm-8.57,8.82h-4.95v5.66h4.95Zm8.57,0H309.7v5.66h4.95Zm-8.57,8.83h-4.95v5.66h4.95Zm8.57,0H309.7v5.66h4.95Z" style="fill:#fff"></path><path d="M413.59,172.61H300.4S311.63,142,328.9,142s22.68,21.16,22.68,21.16,11.65-11.49,21.22-11.49,17.9,15.19,17.9,15.19S404.22,158.64,413.59,172.61Z" style="fill:#ebebeb"></path><path d="M392.84,79.58H340s11.82-17.12,21.13-17.12,12.06,11.42,12.06,11.42,6.57-5.33,12.66-4.38S392.84,79.58,392.84,79.58Z" style="fill:#ebebeb"></path><path d="M236.57,117.2h-103s14.11-31.5,29.21-33.47,22.31,23.4,22.31,23.4,9.73-9,17.39-9S216,110,216,110,231.32,101.88,236.57,117.2Z" style="fill:#ebebeb"></path><path d="M152.84,191.35H83.24s12-22.82,24.93-23.15S128,185.47,128,185.47,148.13,169.28,152.84,191.35Z" style="fill:#ebebeb"></path></g><g id="freepik--Shadows--inject-62"><ellipse cx="122.13" cy="432.64" rx="30.7" ry="7.23" style="fill:#ebebeb"></ellipse><ellipse cx="269.55" cy="441.18" rx="106.04" ry="16.16" style="fill:#ebebeb"></ellipse><ellipse cx="367.77" cy="426.44" rx="46.94" ry="8.17" style="fill:#ebebeb"></ellipse></g><g id="freepik--Plants--inject-62"><path d="M221.44,371.83H141s.19-12,8.09-15.15a10.78,10.78,0,0,1,12.61,3s3.22-22,18-22,21.78,19,21.78,19,3.3-5.74,11.48-4.67S221.44,371.83,221.44,371.83Z" style="fill:#37474f"></path><path d="M418.7,371.83s-2.46-11.51-7.38-13.28-7.92,3.39-7.92,3.39-1.16-11-8.14-14.28S383,351.11,383,351.11s-5.36-13.95-14.93-13.95-14.4,20.41-14.4,20.41-5.64-6.08-11.43-2.65-5.79,16.91-5.79,16.91Z" style="fill:#455a64"></path><path d="M155.44,371.83H81.3s2.44-10.46,7.35-11.2,7.21,4.11,7.21,4.11-.22-14.58,9-17.06,16.88,10.39,16.88,10.39,5.76-7.34,13.61-6.87,9.83,12.61,9.83,12.61S152.29,359.59,155.44,371.83Z" style="fill:#455a64"></path><path d="M341.8,371.83H296.25s.1-6.78,4.58-8.58A6.1,6.1,0,0,1,308,365s1.83-12.47,10.17-12.47,12.34,10.76,12.34,10.76A6.41,6.41,0,0,1,337,360.6C341.62,361.21,341.8,371.83,341.8,371.83Z" style="fill:#37474f"></path></g><g id="freepik--Floor--inject-62"><rect x="63.99" y="371.83" width="372.02" height="10.68" style="fill:#a6a6a6"></rect><polygon points="63.99 391.79 110.49 391.55 157 391.46 250 391.3 343 391.46 389.51 391.55 436.01 391.79 389.51 392.04 343 392.13 250 392.29 157 392.13 110.49 392.04 63.99 391.79" style="fill:#263238"></polygon></g><g id="freepik--Character--inject-62"><path d="M314.84,438.93c-2.29.76-67.65.57-70.14-1-.94-.59-1.47-10.12-1.78-21.64q-.1-3.73-.16-7.67c-.29-16.94-.19-34.93-.19-34.93h43.72l-1,34.93-.22,7.67s25,11.27,27.53,13.3S317.12,438.18,314.84,438.93Z" style="fill:#dd6a57"></path><path d="M315,439c-1.49.49-29.33.59-49.6.17-4.69-.1-9-.23-12.44-.38-4.77-.22-8-.48-8.49-.81-1.15-.74-1.7-14.72-2-29.47h42.76l-.22,7.71s25.13,11.33,27.69,13.37S317.33,438.26,315,439Z" style="fill:#27A8FF"></path><path d="M314.1,436.4c-11-.31-55.48-.49-66.39.05-.09,0-.09.07,0,.07,10.91.54,55.37.36,66.39.06C314.33,436.57,314.33,436.4,314.1,436.4Z" style="fill:#263238"></path><path d="M286.65,413.81c-4.33-.83-9.64-.17-13,2.9-.13.12,0,.3.18.26a61.66,61.66,0,0,1,12.76-2.62A.27.27,0,0,0,286.65,413.81Z" style="fill:#263238"></path><path d="M289.77,415.7c-4.33-.82-9.63-.17-12.95,2.91-.13.12,0,.3.18.26a60.89,60.89,0,0,1,12.76-2.62A.28.28,0,0,0,289.77,415.7Z" style="fill:#263238"></path><path d="M292.9,417.6c-4.33-.83-9.64-.17-13,2.9-.13.12,0,.31.18.26a61.53,61.53,0,0,1,12.76-2.62A.27.27,0,0,0,292.9,417.6Z" style="fill:#263238"></path><path d="M296,419.49c-4.33-.82-9.63-.17-13,2.91-.13.12.05.3.19.26A60.79,60.79,0,0,1,296,420,.28.28,0,0,0,296,419.49Z" style="fill:#263238"></path><path d="M294.69,403.8c-1.7-2.35-4.88-1.3-6.69.21a23.25,23.25,0,0,0-6.71,9.92.12.12,0,0,0,.11.15.54.54,0,0,0,.68.55c3.58-1.32,7.57-2.28,10.65-4.66C294.52,408.59,296.29,406,294.69,403.8Zm-7.59,7.72c-1.75.69-3.52,1.29-5.24,2,1.32-1.93,2.54-3.9,4.05-5.7a24.45,24.45,0,0,1,2.3-2.47c1.29-1.17,6.41-3.66,5.63,1.1C293.41,409.11,289.18,410.7,287.1,411.52Z" style="fill:#263238"></path><path d="M270.28,412.76c3.57,1.54,7.68,1.47,11.47,1.85a.54.54,0,0,0,.53-.7.11.11,0,0,0,.06-.17,23.19,23.19,0,0,0-9-7.93c-2.14-1-5.47-1.23-6.53,1.47S268.2,411.87,270.28,412.76Zm-1.95-3.09c-1.94-4.41,3.63-3.29,5.18-2.48a23.78,23.78,0,0,1,2.85,1.83c1.9,1.36,3.58,3,5.34,4.51-1.86-.3-3.72-.44-5.59-.67C273.89,412.58,269.4,412.1,268.33,409.67Z" style="fill:#263238"></path><path d="M269.85,439.18c-4.69-.1-13.39-.21-16.85-.36-4.77-.22-8-.48-8.49-.81-1.15-.74-1.7-14.72-2-29.47Z" style="fill:#263238"></path><path d="M228.56,186.35S238.37,296.81,240,305.24c.37,1.92.6,12.36.75,25.78.34,29.28.14,74.09.14,74.09h46.08s-1.37-83.5-3.41-100.34-15.08-118.42-15.08-118.42Z" style="fill:#455a64"></path><path d="M284.86,397.08c-7.19-.15-5.13-.21-12.32-.27-3.52,0-26.64-.24-29.93.3a.08.08,0,0,0,0,.15c3.29.55,26.41.34,29.93.31,7.19-.07,5.13-.13,12.32-.28C285,397.29,285,397.09,284.86,397.08Z" style="fill:#263238"></path><path d="M249.61,352.78l-.15-20c0-6.48,0-13-.34-19.43-.63-13.09-3.28-26-5.17-38.91s-3.47-26-4.9-39c-1.6-14.6-3-29.22-4.51-43.83,0-.09-.17-.09-.16,0,2.17,26.08,4.6,52.16,8.21,78.09q1.35,9.68,2.94,19.31c1.08,6.51,2.15,13,2.66,19.59s.58,12.9.65,19.35q.1,10,.2,20,.21,22.25.43,44.51c0,.28.45.27.45,0Z" style="fill:#263238"></path><path d="M218.84,186.35S238.37,296.81,240,305.24c.37,1.92.6,12.36.75,25.78v0l22-144.71Z" style="fill:#263238"></path><path d="M259.07,448c-2.34.58-67.47-4.84-69.82-6.61-.9-.67-.66-10.21-.05-21.72.13-2.48.28-5.05.45-7.65,1.07-16.91,4.23-35.11,4.23-35.11L235,380.61,232,415.43l-.83,7.62s24,13.23,26.38,15.46S261.41,447.44,259.07,448Z" style="fill:#dd6a57"></path><path d="M259.26,448.12c-2.35.58-67.85-4.87-70.21-6.65-1.1-.83-.52-14.8.4-29.53l42.62,3.41-.83,7.67s24.14,13.3,26.53,15.54S261.62,447.55,259.26,448.12Z" style="fill:#27A8FF"></path><path d="M258.54,445.42c-11-1.18-55.26-4.91-66.18-5.25-.09,0-.1.06,0,.07,10.84,1.41,55.17,4.79,66.18,5.36C258.76,445.62,258.77,445.45,258.54,445.42Z" style="fill:#263238"></path><path d="M233,420.71c-4.26-1.16-9.6-.94-13.16,1.86-.13.11,0,.31.17.28a60.34,60.34,0,0,1,12.92-1.59A.28.28,0,0,0,233,420.71Z" style="fill:#263238"></path><path d="M236,422.85c-4.26-1.16-9.6-.94-13.15,1.86-.14.11,0,.31.16.27a60.42,60.42,0,0,1,12.93-1.58A.28.28,0,0,0,236,422.85Z" style="fill:#263238"></path><path d="M238.91,425c-4.25-1.17-9.59-.94-13.15,1.86-.14.11,0,.31.16.27a61.15,61.15,0,0,1,12.93-1.59A.28.28,0,0,0,238.91,425Z" style="fill:#263238"></path><path d="M241.87,427.13c-4.25-1.17-9.59-.94-13.15,1.86-.14.11,0,.3.16.27a61.15,61.15,0,0,1,12.93-1.59A.27.27,0,0,0,241.87,427.13Z" style="fill:#263238"></path><path d="M241.8,411.38c-1.51-2.48-4.76-1.69-6.69-.32a23.09,23.09,0,0,0-7.47,9.34.12.12,0,0,0,.09.17c0,.33.25.7.63.59,3.68-1,7.73-1.66,11-3.78C241.25,416.14,243.22,413.73,241.8,411.38Zm-8.18,7.09c-1.8.55-3.61,1-5.39,1.62a69.6,69.6,0,0,1,4.49-5.36,25.69,25.69,0,0,1,2.49-2.29c1.39-1.06,6.68-3.13,5.53,1.55C240.1,416.57,235.76,417.82,233.62,418.47Z" style="fill:#263238"></path><path d="M216.75,418.36c3.43,1.82,7.53,2.08,11.29,2.76.39.07.62-.32.58-.65a.12.12,0,0,0,.07-.17,23.14,23.14,0,0,0-8.31-8.62c-2-1.18-5.35-1.67-6.62.94S214.74,417.3,216.75,418.36Zm-1.7-3.24c-1.58-4.55,3.89-3,5.36-2.05a25.48,25.48,0,0,1,2.7,2c1.79,1.52,3.33,3.25,5,4.93-1.83-.45-3.67-.74-5.51-1.12C220.37,418.47,215.93,417.63,215.05,415.12Z" style="fill:#263238"></path><path d="M235.37,408.63l-48.82-2.19s15.17-93.81,15.4-100c.61-16.11,10.31-120.11,10.31-120.11h56.23s-3.55,24-9.61,39.23a70.08,70.08,0,0,0-11.77,5.37s-5.26,68.78-5.46,77.35C241.26,325.22,235.37,408.63,235.37,408.63Z" style="fill:#455a64"></path><path d="M233,401.16c-7.18-.45-5.12-.42-12.3-.8-3.51-.18-26.61-1.36-29.92-.95-.07,0-.07.13,0,.14,3.26.69,26.37,1.46,29.89,1.58,7.19.23,5.13.09,12.32.24C233.09,401.38,233.1,401.17,233,401.16Z" style="fill:#263238"></path><path d="M216.39,192.48c-2.09,26.19-4.24,52.38-6.63,78.55s-5.22,52.48-8.65,78.62q-2.87,21.92-6.3,43.74c0,.1.14.14.15,0,4.64-25.86,8-51.95,11-78.06s5.27-52.28,7.38-78.45c1.2-14.81,2.28-29.63,3.41-44.45C216.73,192.26,216.4,192.27,216.39,192.48Z" style="fill:#263238"></path><path d="M260.88,224.5a87.41,87.41,0,0,0-13.77,6.41.15.15,0,0,0,.13.28c4.64-2,9.37-3.89,13.89-6.14A.3.3,0,0,0,260.88,224.5Z" style="fill:#263238"></path><path d="M262.36,192.67c0-.16-.3-.2-.3,0a155.11,155.11,0,0,1-.77,15.5c-.22,2.39-2.14,15.6-6.28,14.63-.7-.16-1-.84-1.16-1.89a16.66,16.66,0,0,1,.55-4c.46-2.76.83-5.53,1.07-8.33a76.21,76.21,0,0,0-.17-15.62.14.14,0,0,0-.27,0,142.55,142.55,0,0,1-1.26,21.56c-.52,3.44-2.25,8.61,1.34,9.14s6-8.13,6.47-10.49A79.07,79.07,0,0,0,262.36,192.67Z" style="fill:#263238"></path><path d="M255.12,223.13a22.14,22.14,0,0,0-.94,2.74,6,6,0,0,0-.38,2.25c0,.14.21.16.28.06a8.13,8.13,0,0,0,1-2.19c.31-.85.64-1.69.94-2.54A.46.46,0,0,0,255.12,223.13Z" style="fill:#263238"></path><path d="M256.33,188.25c-.41.7-42.08,8.78-44.16,8.5a1.43,1.43,0,0,1-.29-.08c-2.64-.79-15.63-9.6-16.62-10.36-2.44-1.86,4.07-18.43,6.49-21.37,1.6-1.95,4.95-3.12,4.95-3.12s5.58-29.47,10.7-36.22c1.28-1.69,27.21-6.11,32.17-4.68,2.12.62,7.7,4.85,8,5.71h0C257.84,127.92,256.73,187.53,256.33,188.25Z" style="fill:#37474f"></path><path d="M256.33,188.25c-.41.7-42.08,8.78-44.16,8.5a1.43,1.43,0,0,1-.29-.08c2.41-11.46,13.78-65.24,14.27-65.65s25.36-3.93,31.38-4.38C257.84,127.92,256.73,187.53,256.33,188.25Z" style="fill:#263238"></path><path d="M231.35,125.65c-.48-.33-1.6-6-1-7.23.68-1.41,10.75-2.25,11.49-1.25s1.87,6.65,1.6,6.9-1.9.69-2.18.36-1-5-1.17-5.27-7.27.36-7.45.75,1.1,5.07.85,5.32S231.81,126,231.35,125.65Z" style="fill:#37474f"></path><path d="M250.29,135.05c7.32,8,40,29.36,52.16,27.32,8-1.33,33.14-18.64,38.46-24.11,6.23-6.4-6.79-23.18-11.63-21.12-6,2.57-26,18-31.66,20-3.23,1.17-24.19-7.39-43.69-15.39C246.56,118.77,245.31,129.63,250.29,135.05Z" style="fill:#dd6a57"></path><path d="M340.91,138.26c2.06-1.92,10.74-11.54,12.55-14.76s6.37-12.86,4.05-14.5-3.88,1.08-3.88,1.08,1.46-4.77-1.22-5.82c-2.13-.83-4.53,2.87-4.53,2.87s1.34-5.31-1.45-6c-2.55-.64-4.12,4-4.12,4s.67-4.56-1.9-4.7c-3.09-.16-4.24,7.72-6.51,11.13-.52.77-11.57,14.91-11.57,14.91Z" style="fill:#dd6a57"></path><path d="M342.15,105c-1.46,5.82-2.24,8.19-6,12.56-.07.08,0,.21.13.13,4.07-4,5.2-6.69,6.17-12.66C342.48,104.69,342.22,104.68,342.15,105Z" style="fill:#263238"></path><path d="M347.82,107.14c-1.42,6-3,8.43-6.59,13.3-.05.07.06.16.12.1,3.94-4.48,6-7.27,6.68-13.4C348.06,106.87,347.89,106.87,347.82,107.14Z" style="fill:#263238"></path><path d="M353.45,110.32c-1.8,5.65-3.29,8.58-7.4,12.85a.11.11,0,0,0,.15.16c4.61-4,6.5-7.59,7.41-12.94C353.67,110,353.56,110,353.45,110.32Z" style="fill:#263238"></path><path d="M315.71,126s4-5.57,5.61-8.47,4.9-11.72,7.7-12.17c3.15-.51,2.77,8.06,0,13.26,0,0,6.85,6.84,4.42,12S315.71,126,315.71,126Z" style="fill:#dd6a57"></path><path d="M328.92,119.24c2.76,2.57,5.25,6.86,4.55,10.55,0,.11.13.16.16.05,1.3-3.86-1.55-8.85-4.15-11C329,118.43,328.2,118.57,328.92,119.24Z" style="fill:#263238"></path><path d="M332.93,147.31s-24.19,19-35,16.64c-5.37-1.18-14.31-5.17-23.18-10.11-9-5-18-11.07-23.08-16.17-6-6-6.89-12-4.35-15a5.75,5.75,0,0,1,4.12-1.94s0,0,0,0a13.41,13.41,0,0,1,6.73,1.59c11.77,5.72,35.29,14.78,38,14.27s19.25-12.47,19.25-12.47Z" style="fill:#27A8FF"></path><path d="M327,149.93c-.52-1-1.23-1.88-1.84-2.82s-1.26-1.86-1.91-2.77c-1.25-1.76-2.53-3.5-3.82-5.24l-3.88-5.19c-1.34-1.79-2.62-3.68-4.1-5.36-.06-.07-.18,0-.13.09,1.14,1.92,2.54,3.72,3.83,5.54s2.54,3.6,3.82,5.39,2.57,3.58,3.88,5.35c.65.87,1.3,1.73,2,2.57s1.3,1.76,2.06,2.54C327,150.1,327.06,150,327,149.93Z" style="fill:#263238"></path><path d="M274.72,153.84c-9-5-18-11.07-23.08-16.17-6-6-6.89-12-4.35-15,2.33-1.12,4-1.86,4.12-1.94h0C251.85,121.34,265.82,140.94,274.72,153.84Z" style="fill:#263238"></path><path d="M272,198.66c-1.4,1.57-29.74,5.1-48.81,6.92-9.56.92-16.79,1.4-17.14,1-.94-1.11,7.57-44.58,13.82-60.95,4-10.4,7.35-15.83,10.25-19,2.69-2.94,5-4,6.94-5.22,3.47-2.21,13.86-1.69,15.56-1,1.91.73,8,9.69,9.91,17.32S272.9,197.66,272,198.66Z" style="fill:#27A8FF"></path><path d="M219.89,145.62c4-10.4,7.35-15.83,10.25-19l9.08,60.91c-9.56.92-32.49,15.41-32.84,15C206.93,197.64,213.64,162,219.89,145.62Z" style="fill:#263238"></path><path d="M255.68,123.81c0-.2-.18-.23-.18,0-.06,2.66-.13,5.89-1.79,7.7-2.17,2.34-5.9,1.1-8.41-.06-3.91-1.82-6.89-5-9.32-8.51a.12.12,0,0,0-.21.13c2.79,4.67,7.18,8.93,12.65,10.11C254.6,134.49,256.57,129.45,255.68,123.81Z" style="fill:#263238"></path><path d="M251.36,129.36c-3.53,1.29-10.43-3.52-13.44-7.73-.2-.29-.12-3.6-.2-7.62-.07-2.44-.19-5.16-.49-7.64-.06-.5,1.78.22,1.78.22l3.29.39,10.89,1.31a39.59,39.59,0,0,0-.37,9.67,5.86,5.86,0,0,0,.23,1c0,.05,0,.1,0,.17C253.64,121,254.77,128.1,251.36,129.36Z" style="fill:#dd6a57"></path><path d="M253.05,119c0,.05,0,.1,0,.17a8.8,8.8,0,0,1-1.58.27c-10.47,1-13.36-12.1-13.36-12.1l4.15-.32,10.89,1.31a39.59,39.59,0,0,0-.37,9.67A5.86,5.86,0,0,0,253.05,119Z" style="fill:#263238"></path><path d="M233.13,87.85c-1.2,5.66,3.13,21.34,7.37,24.54,6.14,4.65,15.5,4.32,19.27-2.91,3.65-7-2.35-27.33-7-30.17C245.88,75.13,234.89,79.48,233.13,87.85Z" style="fill:#dd6a57"></path><path d="M247.58,96.49s-.07.07-.06.11c.32,1.05.51,2.31-.35,2.92,0,0,0,.07,0,0C248.32,99.09,248.05,97.43,247.58,96.49Z" style="fill:#263238"></path><path d="M246.33,95.64c-1.73.33-.94,3.78.67,3.47S247.79,95.36,246.33,95.64Z" style="fill:#263238"></path><path d="M253.8,95.25s.09,0,.1.07c.21,1.08.63,2.27,1.68,2.41a0,0,0,0,1,0,.06C254.37,97.89,253.83,96.3,253.8,95.25Z" style="fill:#263238"></path><path d="M254.5,93.91c1.68-.52,2.61,2.89,1,3.38S253.08,94.35,254.5,93.91Z" style="fill:#263238"></path><path d="M244.61,94.38a12.82,12.82,0,0,0,1.23-.78,2.34,2.34,0,0,0,1.1-1,.76.76,0,0,0-.32-.86,1.85,1.85,0,0,0-1.86.23,2.75,2.75,0,0,0-1.27,1.5A.8.8,0,0,0,244.61,94.38Z" style="fill:#263238"></path><path d="M255.43,91.87a14,14,0,0,1-1.45,0,2.34,2.34,0,0,1-1.47-.32.75.75,0,0,1-.16-.9,1.87,1.87,0,0,1,1.72-.76,2.71,2.71,0,0,1,1.85.65A.8.8,0,0,1,255.43,91.87Z" style="fill:#263238"></path><path d="M248.86,106.62c.31.19.65.48,1,.42a2.84,2.84,0,0,0,1.09-.53,0,0,0,0,1,.06,0,1.5,1.5,0,0,1-1.22.89,1.18,1.18,0,0,1-1.06-.75C248.74,106.64,248.82,106.6,248.86,106.62Z" style="fill:#263238"></path><path d="M249.25,103.17a3.75,3.75,0,0,0,2.8,1.06,4.65,4.65,0,0,0,1.32-.24l.24-.08.23-.09a.29.29,0,0,0,.16-.29h0a.49.49,0,0,0,0-.11h0l0-.09c-.17-.83-.54-2.06-.54-2.06.34.08,2,.42,1.9,0a55,55,0,0,0-3.93-10.68.1.1,0,0,0-.19.07c.86,3.41,2.31,6.65,3.22,10.06a6.24,6.24,0,0,0-1.84-.13c-.11.06.75,2.37.8,2.75v0a5.18,5.18,0,0,1-4-.31C249.24,103,249.17,103.1,249.25,103.17Z" style="fill:#263238"></path><path d="M252.79,103.69a4.37,4.37,0,0,1-1.42,1.73,1.93,1.93,0,0,1-1.16.34c-.91,0-1.11-.8-1.1-1.51a4.91,4.91,0,0,1,.14-1.11A5.75,5.75,0,0,0,252.79,103.69Z" style="fill:#263238"></path><path d="M251.37,105.42a1.93,1.93,0,0,1-1.16.34c-.91,0-1.11-.8-1.1-1.51A2.06,2.06,0,0,1,251.37,105.42Z" style="fill:#ff99ba"></path><path d="M235.65,100.42c3.62-.91,2.71-7.66,2.71-7.66s6-2.55,5.72-7.46c0,0,6.84,2.32,11.07-.51s2-7.84,1.17-8.84-2.85,1.72-2.85,1.72-1-2.9-1.9-3-1.29,1.9-1.29,1.9a39.86,39.86,0,0,0-11.87,1c-5.39,1.49-6.73,7.62-6.73,7.62s-2.75,1.33-3.19,3.6S233.34,101,235.65,100.42Z" style="fill:#263238"></path><path d="M236.9,93.17c5-.55,7.38-4.53,6.94-9.32a.05.05,0,0,1,.1,0c.92,4.33-1.92,10.1-7,9.55C236.79,93.38,236.77,93.18,236.9,93.17Z" style="fill:#263238"></path><path d="M231.79,85a.05.05,0,0,1,.05.09c-1.19,1-2.62,1.81-3.26,3.27-.78,1.76-.06,3.65.78,5.23,1.31,2.45,3.49,5.51,6.2,6.47.16,0,.07.28-.09.24-3.21-1-5.92-5-7.06-8C227.13,89.05,228.79,86.56,231.79,85Z" style="fill:#263238"></path><path d="M249.69,85.34A7.3,7.3,0,0,0,257,83.42c2.1-2.4.84-5.18-.85-7.35a.13.13,0,0,1,.17-.18c2,1.77,2.94,5,1.32,7.34s-5.4,3.29-8.08,2.46C249.33,85.62,249.46,85.27,249.69,85.34Z" style="fill:#263238"></path><path d="M237.69,100.53s-4.16-4.75-6.35-3.21,1.32,8.69,4.17,9.41a2.8,2.8,0,0,0,3.57-1.9Z" style="fill:#dd6a57"></path><path d="M232.39,99.34s0,.07,0,.08c2,.57,3.21,2.24,4.12,4a1.54,1.54,0,0,0-2.35-.17s0,.11.06.1a1.73,1.73,0,0,1,2,.39,8.46,8.46,0,0,1,1.07,1.43c.1.16.4,0,.32-.16l0,0C237.33,102.52,235.05,99.3,232.39,99.34Z" style="fill:#263238"></path><path d="M242.52,112c-2.77-.81-5.59-1.79-7.64-4a14,14,0,0,1-3.33-5.59,10.52,10.52,0,0,0,1.34,2.31,7.52,7.52,0,0,0,2,1.86h0a14.8,14.8,0,0,0,7.67,5C242.85,111.57,242.79,112,242.52,112Z" style="fill:#ebebeb"></path><path d="M238.39,102.29c-.55-.51-2.41-3.31-3.87-4.25h0a7.91,7.91,0,0,0-.7-.48,3,3,0,0,0-1.29-.48,2,2,0,0,1,1.13-.25c2,.1,3.95,3.9,4.89,5.31C238.61,102.23,238.48,102.39,238.39,102.29Z" style="fill:#ebebeb"></path><path d="M237.86,101.68c-.44-.7,5.29,1.14,10.74-.8,1.11-.39,4.13-2.12,5.91-2.37s4.06.91,6.56.83c.85,0,1.13,7.36-.57,10.84-.57,1.14-3.28,3.71-5.09,4.15-4.26,1-12.09-1-13.42-2.3C240.93,111,242,108.29,237.86,101.68Z" style="fill:#ebebeb"></path><path d="M260.7,101a17.29,17.29,0,0,0-5.47-.88,19.61,19.61,0,0,0-4.28,1.58,18.5,18.5,0,0,1-10.36,1.35c-.05,0-.05.07,0,.08a15.05,15.05,0,0,0,9.44-.68c1.63-.63,3.54-1.77,5.29-1.9a23.68,23.68,0,0,1,5.38.62C260.85,101.22,260.87,101.06,260.7,101Z" style="fill:#dbdbdb"></path><path d="M259.14,109.81a29.56,29.56,0,0,1-3.28,2.27c-1.38.67-3.16.43-4.64.29a82.78,82.78,0,0,1-8.32-1.56s0,0,0,0a36,36,0,0,0,9.6,1.94,7.18,7.18,0,0,0,3.29-.32,15.49,15.49,0,0,0,3.39-2.59S259.17,109.79,259.14,109.81Z" style="fill:#dbdbdb"></path><path d="M260.12,103.6a18.78,18.78,0,0,0-8.15.88,32.72,32.72,0,0,1-9.55,1.15s0,.05,0,.05A27.67,27.67,0,0,0,251,105c1.36-.34,2.69-.79,4.05-1.07a16,16,0,0,1,5.08-.1C260.2,103.79,260.22,103.61,260.12,103.6Z" style="fill:#dbdbdb"></path><path d="M259.86,106.47a13.76,13.76,0,0,1-7.82,2.89,37,37,0,0,1-8.66-1.13s0,.06,0,.07c5.8,1.55,11.58,2.35,16.58-1.67C260.05,106.55,260,106.4,259.86,106.47Z" style="fill:#dbdbdb"></path><path d="M231.65,124.07c-.79-.95,4.26-3.74,5.58-2.68s8,17.45,5.8,35.24-34.11,38.56-35.41,35.9a5.77,5.77,0,0,1,.69-4.78c1.21-1.41,23.64-18.9,26.16-29.93C236.72,148,233.64,126.48,231.65,124.07Z" style="fill:#455a64"></path><path d="M219.47,135.45C199.25,156.76,181,193.3,192,195.2c9.53,1.65,39.42-7,46.81-10.17,3.22-1.36-5.19-28.46-8.54-26.8a44.56,44.56,0,0,1-7.15,3c-1-.07,3.33-11.28,7.63-22.1C236.81,123.87,227.06,127.46,219.47,135.45Z" style="fill:#dd6a57"></path><path d="M260.79,148a4.18,4.18,0,0,1,.5,4.73,6.21,6.21,0,0,1,3.44,2.41c1.37,2.15-1.4,5.23-1.4,5.23a7.61,7.61,0,0,1,3.23,3.12c1.1,2.19-1.24,5.7-1.24,5.7a6.68,6.68,0,0,1,1.11,4.53c-.67,4.24-6.7,6.81-10.51,8.48s-16.21,2.85-18.55,3.31l-11-24.4s15-12.37,19.75-13.7C250.18,146.31,258.56,145.65,260.79,148Z" style="fill:#dd6a57"></path><path d="M260.94,152.44c-4.55.16-8.81,1.67-13.14,2.93a.08.08,0,1,0,0,.15c4.3-1.3,8.8-1.74,13.14-2.87A.11.11,0,0,0,260.94,152.44Z" style="fill:#263238"></path><path d="M263.11,160.11a12.12,12.12,0,0,0-3,.81c-1,.36-2.07.74-3.1,1.13q-3.09,1.19-6.12,2.52c-.09,0,0,.19.05.15,2.05-.78,4.12-1.53,6.2-2.23,1-.35,2.09-.68,3.14-1a14.39,14.39,0,0,0,2.92-1.07A.16.16,0,0,0,263.11,160.11Z" style="fill:#263238"></path><path d="M265.23,169.24a8.25,8.25,0,0,0-2.66.88l-2.8,1.12c-1.87.73-3.74,1.47-5.63,2.14-.1,0,0,.18,0,.15,1.93-.67,3.87-1.32,5.79-2l2.82-1a7.51,7.51,0,0,0,2.48-1.16A.06.06,0,0,0,265.23,169.24Z" style="fill:#263238"></path><path d="M229.77,157,239,187.23S197,200.39,190,195.31s7.85-39.94,34.85-65.47c9.48-9,9.62.17,6.42,10.52-3.7,12-6.78,19.74-6.78,19.74Z" style="fill:#27A8FF"></path><path d="M229.73,157c-1,.42-12.57,7.18-13.37,7.71a4.26,4.26,0,0,0-1.21.33c-.47.15-.93.31-1.4.48-.88.33-1.77.66-2.65,1a37.92,37.92,0,0,1-5.34,1.95c-.1,0,0,.17,0,.15a51.14,51.14,0,0,0,5.58-1.53c.92-.29,1.84-.6,2.75-.92l-1,.63c-3.77,2.5-7.47,5.1-11.22,7.63-2.13,1.44-4.25,2.9-6.41,4.31a.08.08,0,0,0,.09.13c7.56-4.94,33.39-20.72,34.3-21.57C230.05,157.16,229.9,156.9,229.73,157Z" style="fill:#263238"></path><path d="M232.87,180.6c-.73-2.12-1.43-4.24-2.18-6.35-1.51-4.21-2.91-8.51-4.63-12.64a.08.08,0,0,0-.15,0,83.23,83.23,0,0,0,3.92,13c.78,2.08,1.67,4.1,2.59,6.13s1.79,4.11,2.77,6.12a0,0,0,0,0,0,0C234.45,184.78,233.6,182.71,232.87,180.6Z" style="fill:#263238"></path><path d="M230.51,148.38c-.68.86-1.49,1.61-2.18,2.48a.76.76,0,0,0-.11.14c1-2.63,1.88-5.28,2.77-7.94,0,0-.05-.06-.07,0-1.44,3.24-2.88,6.49-4.17,9.8-.64,1.66-2.91,7.58-2.78,7.8s.2.18.3.06,1.93-4.51,2-4.82c.4-1,.8-2,1.19-3a.47.47,0,0,1,.05-.1c.14-.19.3-.37.45-.56.31-.39.6-.8.9-1.2.61-.81,1.09-1.72,1.72-2.53C230.69,148.4,230.57,148.3,230.51,148.38Z" style="fill:#263238"></path><path d="M239.18,187.31a2.54,2.54,0,0,0-.14-.47c-.06-.18-.12-.36-.19-.54a5.43,5.43,0,0,1-.17-.53l-.12-.56a.08.08,0,0,0-.15,0l.15.54a3.44,3.44,0,0,1,.09.56c0,.18,0,.36.07.54l.05.26a2.4,2.4,0,0,0,0,.24c-2,.43-3.94,1.07-5.9,1.59l-6.14,1.61c-4.14,1-8.27,2.11-12.43,3.1-2.1.5-4.19,1-6.31,1.45,0,.06,0,.12,0,.18,4-.78,7.91-1.46,11.84-2.36,4.16-1,8.3-2,12.39-3.23,2.32-.69,4.74-1.29,7-2.21A.11.11,0,0,0,239.18,187.31Z" style="fill:#263238"></path></g><g id="freepik--traffic-light--inject-62"><polygon points="127.58 396.69 117.44 396.69 120.03 180.37 120.24 162.35 124.77 162.35 124.98 180.37 127.58 396.69" style="fill:#27A8FF"></polygon><polygon points="124.98 180.37 120.03 180.37 120.24 162.35 124.77 162.35 124.98 180.37" style="fill:#263238"></polygon><polygon points="97.23 96.76 101.21 167.36 105.86 168.1 110.1 168.77 110.1 92.54 101.1 95.49 97.23 96.76" style="fill:#27A8FF"></polygon><path d="M101.62,105s-17.18.17-16.83,1.14,7.27,2.89,7.89,3.33,7.19,13,8.94,13S101.62,105,101.62,105Z" style="fill:#27A8FF"></path><path d="M102.89,125s-17.19.17-16.84,1.13,7.28,2.9,7.9,3.34,7.18,13,8.94,13S102.89,125,102.89,125Z" style="fill:#27A8FF"></path><path d="M104.15,145s-17.18.18-16.83,1.14,7.28,2.9,7.89,3.34,7.19,13,8.94,13S104.15,145,104.15,145Z" style="fill:#27A8FF"></path><polygon points="101.1 95.49 105.86 168.1 110.1 168.77 110.1 92.54 101.1 95.49" style="fill:#263238"></polygon><polygon points="147.78 96.76 143.8 167.36 139.15 168.1 134.91 168.77 134.91 92.54 143.91 95.49 147.78 96.76" style="fill:#27A8FF"></polygon><path d="M143.39,105s17.18.17,16.83,1.14-7.27,2.89-7.89,3.33-7.19,13-8.94,13S143.39,105,143.39,105Z" style="fill:#27A8FF"></path><path d="M142.12,125s17.19.17,16.84,1.13-7.28,2.9-7.9,3.34-7.18,13-8.94,13S142.12,125,142.12,125Z" style="fill:#27A8FF"></path><path d="M140.86,145s17.18.18,16.83,1.14-7.28,2.9-7.89,3.34-7.19,13-8.94,13S140.86,145,140.86,145Z" style="fill:#27A8FF"></path><polygon points="143.91 95.49 139.15 168.1 134.91 168.77 134.91 92.54 143.91 95.49" style="fill:#263238"></polygon><polygon points="138.64 86.8 137.24 170.49 107.78 170.49 106.37 86.8 138.64 86.8" style="fill:#27A8FF"></polygon><path d="M133,101.65a10.5,10.5,0,1,1-10.5-10.5A10.5,10.5,0,0,1,133,101.65Z" style="fill:#dd6a57"></path><path d="M133,154.63a10.5,10.5,0,1,1-10.5-10.5A10.5,10.5,0,0,1,133,154.63Z" style="fill:#fff"></path><path d="M133,128.41a10.5,10.5,0,1,1-10.5-10.5A10.5,10.5,0,0,1,133,128.41Z" style="fill:#fff"></path><polygon points="130.63 433.43 114.38 433.43 115.77 390.91 116.2 377.71 128.47 377.71 128.98 390.91 130.63 433.43" style="fill:#27A8FF"></polygon><polygon points="128.98 390.91 115.77 390.91 116.2 377.71 128.47 377.71 128.98 390.91" style="fill:#455a64"></polygon></g><g id="freepik--trash-can--inject-62"><polygon points="406.11 309.4 405.21 327.06 401.11 427.43 329.68 427.43 325.58 327.06 324.68 309.4 406.11 309.4" style="fill:#27A8FF"></polygon><polygon points="406.11 309.4 405.21 327.06 325.58 327.06 324.68 309.4 406.11 309.4" style="fill:#263238"></polygon><path d="M337.28,420.5h-.17a2.21,2.21,0,0,1-2.2-2.2V333.77a2.21,2.21,0,0,1,2.2-2.2h.17a2.21,2.21,0,0,1,2.2,2.2V418.3A2.21,2.21,0,0,1,337.28,420.5Zm-.17-87.93a1.2,1.2,0,0,0-1.2,1.2V418.3a1.2,1.2,0,0,0,1.2,1.2h.17a1.2,1.2,0,0,0,1.2-1.2V333.77a1.2,1.2,0,0,0-1.2-1.2Z" style="fill:#263238"></path><path d="M346.68,420.5h-.17a2.21,2.21,0,0,1-2.2-2.2V333.77a2.21,2.21,0,0,1,2.2-2.2h.17a2.21,2.21,0,0,1,2.2,2.2V418.3A2.21,2.21,0,0,1,346.68,420.5Zm-.17-87.93a1.2,1.2,0,0,0-1.2,1.2V418.3a1.2,1.2,0,0,0,1.2,1.2h.17a1.2,1.2,0,0,0,1.2-1.2V333.77a1.2,1.2,0,0,0-1.2-1.2Z" style="fill:#263238"></path><path d="M356.08,420.5h-.17a2.21,2.21,0,0,1-2.2-2.2V333.77a2.21,2.21,0,0,1,2.2-2.2h.17a2.21,2.21,0,0,1,2.2,2.2V418.3A2.21,2.21,0,0,1,356.08,420.5Zm-.17-87.93a1.2,1.2,0,0,0-1.2,1.2V418.3a1.2,1.2,0,0,0,1.2,1.2h.17a1.2,1.2,0,0,0,1.2-1.2V333.77a1.2,1.2,0,0,0-1.2-1.2Z" style="fill:#263238"></path><path d="M365.48,420.5h-.17a2.21,2.21,0,0,1-2.2-2.2V333.77a2.21,2.21,0,0,1,2.2-2.2h.17a2.21,2.21,0,0,1,2.2,2.2V418.3A2.21,2.21,0,0,1,365.48,420.5Zm-.17-87.93a1.2,1.2,0,0,0-1.2,1.2V418.3a1.2,1.2,0,0,0,1.2,1.2h.17a1.2,1.2,0,0,0,1.2-1.2V333.77a1.2,1.2,0,0,0-1.2-1.2Z" style="fill:#263238"></path><path d="M374.88,420.5h-.17a2.21,2.21,0,0,1-2.2-2.2V333.77a2.21,2.21,0,0,1,2.2-2.2h.17a2.21,2.21,0,0,1,2.2,2.2V418.3A2.21,2.21,0,0,1,374.88,420.5Zm-.17-87.93a1.2,1.2,0,0,0-1.2,1.2V418.3a1.2,1.2,0,0,0,1.2,1.2h.17a1.2,1.2,0,0,0,1.2-1.2V333.77a1.2,1.2,0,0,0-1.2-1.2Z" style="fill:#263238"></path><path d="M384.28,420.5h-.17a2.21,2.21,0,0,1-2.2-2.2V333.77a2.21,2.21,0,0,1,2.2-2.2h.17a2.21,2.21,0,0,1,2.2,2.2V418.3A2.21,2.21,0,0,1,384.28,420.5Zm-.17-87.93a1.2,1.2,0,0,0-1.2,1.2V418.3a1.2,1.2,0,0,0,1.2,1.2h.17a1.2,1.2,0,0,0,1.2-1.2V333.77a1.2,1.2,0,0,0-1.2-1.2Z" style="fill:#263238"></path><path d="M393.68,420.5h-.17a2.21,2.21,0,0,1-2.2-2.2V333.77a2.21,2.21,0,0,1,2.2-2.2h.17a2.21,2.21,0,0,1,2.2,2.2V418.3A2.21,2.21,0,0,1,393.68,420.5Zm-.17-87.93a1.2,1.2,0,0,0-1.2,1.2V418.3a1.2,1.2,0,0,0,1.2,1.2h.17a1.2,1.2,0,0,0,1.2-1.2V333.77a1.2,1.2,0,0,0-1.2-1.2Z" style="fill:#263238"></path><polygon points="380.94 290.79 380.94 303.18 376.2 303.18 376.2 295 354.58 295 354.58 303.18 349.85 303.18 349.85 290.79 380.94 290.79" style="fill:#27A8FF"></polygon><rect x="349.85" y="297.81" width="4.73" height="5.37" style="fill:#263238"></rect><rect x="376.2" y="297.81" width="4.74" height="5.37" style="fill:#263238"></rect><rect x="319.33" y="300.69" width="92.11" height="14.3" style="fill:#27A8FF"></rect></g></svg>