<svg xmlns="http://www.w3.org/2000/svg" viewBox="0 0 500 500"><g id="freepik--background-complete--inject-32"><rect y="382.4" width="500" height="0.25" style="fill:#ebebeb"></rect><rect x="328.88" y="390.34" width="33.12" height="0.25" style="fill:#ebebeb"></rect><rect x="399.78" y="390.47" width="41.14" height="0.25" style="fill:#ebebeb"></rect><rect x="356.76" y="397" width="19.19" height="0.25" style="fill:#ebebeb"></rect><rect x="174" y="395.11" width="51.67" height="0.25" style="fill:#ebebeb"></rect><rect x="130.71" y="395.11" width="34.39" height="0.25" style="fill:#ebebeb"></rect><rect x="63.29" y="390.89" width="46.84" height="0.25" style="fill:#ebebeb"></rect><path d="M237,337.8H43.91a5.71,5.71,0,0,1-5.7-5.71V60.66A5.71,5.71,0,0,1,43.91,55H237a5.71,5.71,0,0,1,5.71,5.71V332.09A5.71,5.71,0,0,1,237,337.8ZM43.91,55.2a5.46,5.46,0,0,0-5.45,5.46V332.09a5.46,5.46,0,0,0,5.45,5.46H237a5.47,5.47,0,0,0,5.46-5.46V60.66A5.47,5.47,0,0,0,237,55.2Z" style="fill:#ebebeb"></path><path d="M453.31,337.8H260.21a5.72,5.72,0,0,1-5.71-5.71V60.66A5.72,5.72,0,0,1,260.21,55h193.1A5.71,5.71,0,0,1,459,60.66V332.09A5.71,5.71,0,0,1,453.31,337.8ZM260.21,55.2a5.47,5.47,0,0,0-5.46,5.46V332.09a5.47,5.47,0,0,0,5.46,5.46h193.1a5.47,5.47,0,0,0,5.46-5.46V60.66a5.47,5.47,0,0,0-5.46-5.46Z" style="fill:#ebebeb"></path><path d="M143.36,311.48h-9.18a3.5,3.5,0,0,1,0-7h9.18a7.71,7.71,0,0,0,7.7-7.7V265a3.5,3.5,0,0,1,7,0v31.78A14.72,14.72,0,0,1,143.36,311.48Z" style="fill:#e6e6e6"></path><path d="M159.93,311.48H134.18a3.5,3.5,0,0,1,0-7h25.75a7.7,7.7,0,0,0,7.69-7.7V265a3.5,3.5,0,0,1,7,0v31.78A14.72,14.72,0,0,1,159.93,311.48Z" style="fill:#e6e6e6"></path><rect x="347.64" y="65.69" width="79.8" height="120.82" transform="translate(775.08 252.21) rotate(180)" style="fill:#e6e6e6"></rect><rect x="343.75" y="65.69" width="81.88" height="120.82" transform="translate(769.37 252.21) rotate(180)" style="fill:#f0f0f0"></rect><rect x="347.64" y="186.51" width="79.8" height="6.16" transform="translate(775.08 379.19) rotate(180)" style="fill:#e6e6e6"></rect><rect x="337.26" y="186.51" width="81.88" height="6.16" transform="translate(756.41 379.19) rotate(180)" style="fill:#f0f0f0"></rect><rect x="329.72" y="90.61" width="109.92" height="70.98" transform="translate(510.79 -258.58) rotate(90)" style="fill:#fafafa"></rect><polygon points="412.01 181.07 396.86 71.14 373.2 71.14 388.36 181.07 412.01 181.07" style="fill:#fff"></polygon><path d="M417.65,175.64a.38.38,0,0,0,.39-.38V74.68a.39.39,0,1,0-.77,0V175.26A.38.38,0,0,0,417.65,175.64Z" style="fill:#f0f0f0"></path><polygon points="383.28 181.07 368.12 71.14 358.9 71.14 374.06 181.07 383.28 181.07" style="fill:#fff"></polygon><rect x="294.58" y="125.76" width="109.92" height="0.69" transform="translate(475.64 -223.44) rotate(90)" style="fill:#e6e6e6"></rect><polygon points="342.46 79.35 422.26 79.35 422.76 73.26 342.96 73.26 342.46 79.35" style="fill:#ebebeb;opacity:0.6000000000000001"></polygon><polygon points="342.46 89.35 422.26 89.35 422.76 83.25 342.96 83.25 342.46 89.35" style="fill:#ebebeb;opacity:0.6000000000000001"></polygon><polygon points="342.46 99.34 422.26 99.34 422.76 93.25 342.96 93.25 342.46 99.34" style="fill:#ebebeb;opacity:0.6000000000000001"></polygon><polygon points="342.46 109.34 422.26 109.34 422.76 103.25 342.96 103.25 342.46 109.34" style="fill:#ebebeb;opacity:0.6000000000000001"></polygon><polygon points="342.46 119.34 422.26 119.34 422.76 113.24 342.96 113.24 342.46 119.34" style="fill:#ebebeb;opacity:0.6000000000000001"></polygon><polygon points="342.46 129.33 422.26 129.33 422.76 123.24 342.96 123.24 342.46 129.33" style="fill:#ebebeb;opacity:0.6000000000000001"></polygon><rect x="64.79" y="78.99" width="209.06" height="303.41" style="fill:#e6e6e6"></rect><rect x="66.61" y="78.99" width="211.13" height="303.41" style="fill:#f0f0f0"></rect><rect x="110.71" y="45.77" width="122.91" height="200.24" transform="translate(318.06 -26.28) rotate(90)" style="fill:#fafafa"></rect><polygon points="160.68 207.35 145.53 84.43 104.18 84.43 119.34 207.35 160.68 207.35" style="fill:#fff"></polygon><polygon points="110.7 207.35 95.54 84.43 86.32 84.43 101.47 207.35 110.7 207.35" style="fill:#fff"></polygon><rect x="336.11" y="330.33" width="77.14" height="52.07" style="fill:#f0f0f0"></rect><rect x="413.25" y="330.33" width="29.99" height="52.07" transform="translate(856.48 712.73) rotate(180)" style="fill:#e6e6e6"></rect></g><g id="freepik--Shadow--inject-32"><ellipse id="freepik--path--inject-32" cx="250" cy="416.24" rx="193.89" ry="11.32" style="fill:#f5f5f5"></ellipse></g><g id="freepik--Sink--inject-32"><path d="M100.33,230.53h175.8a0,0,0,0,1,0,0v5.24a35.72,35.72,0,0,1-35.72,35.72H100.33a0,0,0,0,1,0,0v-41A0,0,0,0,1,100.33,230.53Z" style="fill:#407BFF"></path><path d="M100.33,230.53h175.8a0,0,0,0,1,0,0v5.24a35.72,35.72,0,0,1-35.72,35.72H100.33a0,0,0,0,1,0,0v-41A0,0,0,0,1,100.33,230.53Z" style="fill:#fff;opacity:0.4"></path><rect x="100.33" y="230.53" width="37.33" height="40.96" style="fill:#407BFF;opacity:0.2"></rect><path d="M148.71,227.47h18.71A2.53,2.53,0,0,1,170,230v.53a0,0,0,0,1,0,0H146.18a0,0,0,0,1,0,0V230a2.53,2.53,0,0,1,2.53-2.53Z" style="fill:#407BFF"></path><rect x="151.35" y="187.81" width="13.42" height="39.66" style="fill:#407BFF"></rect><rect x="150.65" y="185.25" width="20.57" height="2.56" rx="1" style="fill:#407BFF"></rect><path d="M177.45,175.3h5.06a0,0,0,0,1,0,0V215a0,0,0,0,1,0,0h-9.24a0,0,0,0,1,0,0V179.48A4.18,4.18,0,0,1,177.45,175.3Z" transform="translate(373.03 17.24) rotate(90)" style="fill:#407BFF"></path><rect x="189.05" y="193.41" width="1.47" height="14.15" transform="translate(-10.71 390.27) rotate(-90)" style="fill:#407BFF"></rect><rect x="175.13" y="210.76" width="29.31" height="10.24" transform="translate(405.66 26.1) rotate(90)" style="fill:#407BFF"></rect><rect x="175.13" y="210.76" width="29.31" height="10.24" transform="translate(405.66 26.1) rotate(90)" style="fill:#fff;opacity:0.8"></rect><path d="M197.73,199.75v-5.06a4.18,4.18,0,0,0-4.18-4.18H164.77v-2.7h5.45a1,1,0,0,0,1-1v-.56a1,1,0,0,0-1-1H151.65a1,1,0,0,0-1,1v.56a1,1,0,0,0,1,1h-.3v39.66h-2.64a2.53,2.53,0,0,0-2.53,2.53v.53H170V230a2.53,2.53,0,0,0-2.53-2.53h-2.65V199.75Z" style="fill:#fff;opacity:0.2"></path><polygon points="159.3 199.75 164.77 205.23 164.77 199.75 159.3 199.75" style="fill:#407BFF"></polygon><polygon points="159.3 187.81 164.77 189.16 164.77 187.81 159.3 187.81" style="fill:#407BFF"></polygon><rect x="108.11" y="201.23" width="21.78" height="29.31" rx="3.67" style="fill:#407BFF"></rect><path d="M118.51,193.79h2.36a0,0,0,0,1,0,0V204.9a0,0,0,0,1,0,0h-2.36a1.39,1.39,0,0,1-1.39-1.39v-8.33A1.39,1.39,0,0,1,118.51,193.79Z" transform="translate(318.35 80.35) rotate(90)" style="fill:#263238"></path><path d="M115.29,208.14h14.6a0,0,0,0,1,0,0v15.47a0,0,0,0,1,0,0h-14.6a.88.88,0,0,1-.88-.88V209A.88.88,0,0,1,115.29,208.14Z" style="fill:#fff;opacity:0.5"></path><path d="M117.11,195.83a.82.82,0,0,0-.82.82v.82h13.6a.82.82,0,0,0,.82-.82Z" style="fill:#263238"></path></g><g id="freepik--Character--inject-32"><path d="M283.2,168.47c-1.2,2.92-2.47,5.58-3.8,8.32s-2.74,5.4-4.22,8.05a112.36,112.36,0,0,1-10.29,15.48c-1,1.23-2.08,2.46-3.25,3.66-.29.3-.58.6-.89.89l-.46.45-.23.22-.28.26a17.82,17.82,0,0,1-2.56,1.85,48.54,48.54,0,0,1-4.33,2.3c-1.4.68-2.8,1.29-4.2,1.87a144.07,144.07,0,0,1-17,5.87l-2.52-5.81c5-3.12,10-6.11,14.91-9.1l3.59-2.25c1.16-.74,2.29-1.53,3.22-2.25a5,5,0,0,0,.92-.82l.58-.65c.21-.22.41-.47.62-.71.82-1,1.61-2,2.38-3.1,1.57-2.17,3.06-4.5,4.47-6.9s2.79-4.86,4.1-7.37,2.6-5.06,3.87-7.61,2.47-5.2,3.61-7.66Z" style="fill:#ff8b7b"></path><path d="M231.5,211.34l-9.58,1.32,2.91,9.15s7.5,0,9-6.09Z" style="fill:#ff8b7b"></path><path d="M215.34,218.63l2.78,3.54a1.94,1.94,0,0,0,1.95.7l4.76-1.06-2.91-9.15-5.94,3A2,2,0,0,0,215.34,218.63Z" style="fill:#ff8b7b"></path><path d="M254,230.54H187.35a8.5,8.5,0,0,1,8.5-8.5,8.49,8.49,0,0,1,8.49-8.49,5.17,5.17,0,0,1,.68,0,12.84,12.84,0,0,1,24-1,7.69,7.69,0,0,1,.83,0,9.51,9.51,0,0,1,8.05,4.44,7.7,7.7,0,0,1,11.7,6.61,5.37,5.37,0,0,1,0,.7A7.71,7.71,0,0,1,254,230.54Z" style="fill:#407BFF"></path><path d="M254,230.54H187.35a8.5,8.5,0,0,1,8.5-8.5,8.49,8.49,0,0,1,8.49-8.49,5.17,5.17,0,0,1,.68,0,12.84,12.84,0,0,1,24-1,7.69,7.69,0,0,1,.83,0,9.51,9.51,0,0,1,8.05,4.44,7.7,7.7,0,0,1,11.7,6.61,5.37,5.37,0,0,1,0,.7A7.71,7.71,0,0,1,254,230.54Z" style="fill:#fff;opacity:0.7000000000000001"></path><path d="M267.13,406.84a.23.23,0,0,0,.11-.17.2.2,0,0,0-.14-.19c-.4-.15-4-1.39-4.93-.69a.67.67,0,0,0-.26.58h0a1.13,1.13,0,0,0,.5.91c1,.68,3.38,0,4.69-.42Zm-4.66-.77c.6-.3,2.52.14,3.93.59-1.8.56-3.19.67-3.76.29a.74.74,0,0,1-.33-.61.23.23,0,0,1,.1-.23Z" style="fill:#407BFF"></path><path d="M265.49,403.58a1.44,1.44,0,0,0-1.14-.19c-.54.13-.65.42-.66.65,0,1,2.22,2.51,3.29,2.82a.16.16,0,0,0,.15,0s0,0,.05,0a.24.24,0,0,0,.05-.19C267.21,406.53,266.68,404.3,265.49,403.58Zm-1.4.47s0-.13.16-.2a.67.67,0,0,1,.2-.08h.08a1.1,1.1,0,0,1,.76.16,4.77,4.77,0,0,1,1.45,2.43C265.63,405.87,264.08,404.63,264.09,404.05Z" style="fill:#407BFF"></path><polygon points="275.06 407.6 266.64 407.46 267.16 387.9 275.58 388.03 275.06 407.6" style="fill:#ff8b7b"></polygon><path d="M266.54,406.49l9.2.14a.66.66,0,0,1,.65.59l.8,7.52a1.37,1.37,0,0,1-1.39,1.48c-3.31-.11-8.08-.38-12.25-.44-4.87-.08-4.4.12-10.12,0-3.45-.05-4-3.57-2.53-3.86,6.76-1.34,7.44-1.41,13.54-4.84A4.23,4.23,0,0,1,266.54,406.49Z" style="fill:#263238"></path><polygon points="267.17 387.9 266.89 397.99 275.31 398.12 275.59 388.04 267.17 387.9" style="opacity:0.2"></polygon><path d="M285.34,121.66c.32,6.31-.24,18.7,4.35,22.69-3.15,3.41-8.36,6.13-15.69,6.58s-5.66-3.65-3.89-6.35c6.8-1.82,5.58-7.85,4.07-12.6Z" style="fill:#ff8b7b"></path><path d="M290.12,142.53c-10.14-.11-22.8,1.13-29.67,3.29a4.54,4.54,0,0,0-3.17,4.09c-.41,7.64-1.52,30.61-2.47,69.83l45.12.73a447.83,447.83,0,0,1,3.54-62.66A13.61,13.61,0,0,0,290.12,142.53Z" style="fill:#407BFF"></path><path d="M266.7,160.19c-.93,2.83-2,5.43-3,8.12s-2.21,5.29-3.38,7.91a133.45,133.45,0,0,1-8.22,15.43c-.41.63-.8,1.26-1.23,1.89l-1.31,1.87-.32.47c-.13.17-.36.47-.54.69s-.35.4-.54.61-.34.37-.5.52c-.65.66-1.25,1.18-1.86,1.7a82.83,82.83,0,0,1-7.16,5.24,145.44,145.44,0,0,1-14.8,8.57l-3.6-5.21c4.05-3.83,8.22-7.56,12.24-11.25,2-1.85,4-3.71,5.7-5.51.4-.44.82-.89,1.1-1.26a1.83,1.83,0,0,0,.2-.26c0-.06.14-.17.13-.2a1.23,1.23,0,0,1,.08-.15l.25-.41,1-1.64c.32-.56.62-1.14.93-1.71,2.49-4.58,4.69-9.54,6.8-14.52,1.06-2.5,2.06-5,3.09-7.55s2-5.12,2.91-7.56Z" style="fill:#ff8b7b"></path><path d="M270.78,150.43c4,7.08-6.77,30.74-6.77,30.74l-18.25-7s2.16-11.4,6.57-20.64C256.86,144.07,266.36,142.65,270.78,150.43Z" style="fill:#407BFF"></path><path d="M222.41,207l-9.14,3.16,4.63,8.41s7.35-1.49,7.68-7.73Z" style="fill:#ff8b7b"></path><path d="M208,217.31l3.41,2.93a1.94,1.94,0,0,0,2.05.31l4.46-2-4.63-8.41L208,214.31A1.94,1.94,0,0,0,208,217.31Z" style="fill:#ff8b7b"></path><path d="M262.77,118.31c.1.67-.18,1.27-.62,1.33s-.88-.44-1-1.11.18-1.27.62-1.33S262.68,117.64,262.77,118.31Z" style="fill:#263238"></path><path d="M263.56,118.09a24.16,24.16,0,0,1-2.38,6.19,4,4,0,0,0,3.31.17Z" style="fill:#ff5652"></path><path d="M264.24,114.4a.42.42,0,0,0,.17-.1.4.4,0,0,0,0-.57,4,4,0,0,0-3.46-1.19.4.4,0,0,0-.31.47.4.4,0,0,0,.48.31h0a3.22,3.22,0,0,1,2.73,1A.4.4,0,0,0,264.24,114.4Z" style="fill:#263238"></path><path d="M285.11,112.13c.7,8.34,1.53,13.18-2,18-5.37,7.24-16.14,4.85-19.32-3.13-2.86-7.18-3.51-19.6,4.12-24A11.52,11.52,0,0,1,285.11,112.13Z" style="fill:#ff8b7b"></path><path d="M268.79,122.21a12,12,0,0,1-4.3-1.33s-1-6.47,2.15-8.38c-2.39,0-5.11-.92-6.51-2.87s-1.47-7,2.12-10.13,7.62-3.62,13-1.5c3.4,1.33,9,1.83,10.43-1.27,3.24,1.65,4.49,4.56,2.95,6.44a5,5,0,0,0,4.05-1.34s2.56,6-2.8,9.34c3,.29,4.25-1.09,4.25-1.09s.12,7.1-4.21,10.14c3.17.24,4.21-1,4.21-1s-1.42,7.87-11.71,9.7C274.78,130.24,269.21,126.92,268.79,122.21Z" style="fill:#263238"></path><path d="M322.88,404a.21.21,0,0,0,.13-.17.18.18,0,0,0-.12-.19c-.39-.18-3.88-1.7-4.87-1.07a.65.65,0,0,0-.3.55h0a1.16,1.16,0,0,0,.43.95c1,.76,3.37.29,4.71-.06Zm-4.57-1.13c.62-.26,2.5.34,3.87.9-1.84.41-3.23.41-3.78,0a.74.74,0,0,1-.28-.63.26.26,0,0,1,.12-.22Z" style="fill:#407BFF"></path><path d="M321.52,400.59a1.54,1.54,0,0,0-1.13-.27c-.55.08-.69.38-.71.6-.1,1,2,2.67,3.05,3.07a.24.24,0,0,0,.15,0l.05,0a.22.22,0,0,0,.08-.19C323,403.67,322.64,401.41,321.52,400.59Zm-1.44.37s0-.12.17-.19l.2-.06h.17a1.11,1.11,0,0,1,.66.22,4.56,4.56,0,0,1,1.25,2.53C321.46,402.9,320,401.54,320.08,401Z" style="fill:#407BFF"></path><polygon points="331.37 403.13 323.24 405.25 317.75 386.4 325.87 384.29 331.37 403.13" style="fill:#ff8b7b"></polygon><path d="M322.66,403.62l8.9-2.32a.66.66,0,0,1,.79.4l2.78,7a1.38,1.38,0,0,1-.94,1.8c-3.22.78-4.29.8-8.33,1.85-4.72,1.23-5.53,3.79-11.25,3.84-3.46,0-4.09-3.45-2.62-3.8,4.66-1.09,7.31-5.15,8.81-7.63A3,3,0,0,1,322.66,403.62Z" style="fill:#263238"></path><polygon points="317.75 386.41 320.58 396.12 328.71 394.01 325.88 384.29 317.75 386.41" style="opacity:0.2"></polygon><path d="M310.37,302.4c-2.87-27.74-4-71.88-10.44-81.93L270.11,220s15.3,59.94,21.12,85.19c6,26.26,25.24,87.19,25.24,87.19l13.15-3.45S319.3,331.73,310.37,302.4Z" style="fill:#263238"></path><path d="M282.84,244.54l-3.31-2-1.58-1h0c1,6.37,2.06,13.6,3,21.45l8.29,33.81h0C292,277.5,292.05,257.15,282.84,244.54Z" style="opacity:0.2"></path><path d="M272.18,120.47A6.66,6.66,0,0,1,270,125.1c-1.78,1.56-3.71.22-4.08-2-.34-2,.18-5.19,2.39-5.9A3,3,0,0,1,272.18,120.47Z" style="fill:#ff8b7b"></path><path d="M281,303.47c4.06-33.18,8.72-61.92,5.65-83.21l-31.78-.52s4,61.27,5.45,86.93c1.46,26.68,3.5,89.32,3.5,89.32l14.29.22S282.94,336.94,281,303.47Z" style="fill:#263238"></path><polygon points="262.91 396.3 279.88 396.56 280.84 391.06 261.92 390.48 262.91 396.3" style="fill:#407BFF"></polygon><polygon points="315.41 395.57 331.84 391.29 331.29 385.73 312.9 390.23 315.41 395.57" style="fill:#407BFF"></polygon></g><g id="freepik--Towel--inject-32"><path d="M385.46,212.83h23.73a3.32,3.32,0,0,1,3.32,3.32V309a0,0,0,0,1,0,0h-27a0,0,0,0,1,0,0V212.83A0,0,0,0,1,385.46,212.83Z" style="fill:#407BFF"></path><path d="M385.46,212.83h23.73a3.32,3.32,0,0,1,3.32,3.32V309a0,0,0,0,1,0,0h-27a0,0,0,0,1,0,0V212.83A0,0,0,0,1,385.46,212.83Z" style="opacity:0.30000000000000004"></path><path d="M435.35,219.19c0,3.88-2.55,7-5.68,7s-5.69-3.15-5.69-7,2.55-7,5.69-7S435.35,215.31,435.35,219.19Z" style="fill:#407BFF"></path><path d="M355,219.19c0,3.88-2.55,7-5.69,7s-5.68-3.15-5.68-7,2.55-7,5.68-7S355,215.31,355,219.19Z" style="fill:#407BFF"></path><path d="M429,221.81H335.94a2.63,2.63,0,0,1-2.62-2.62h0a2.63,2.63,0,0,1,2.62-2.62H429a2.63,2.63,0,0,1,2.62,2.62h0A2.63,2.63,0,0,1,429,221.81Z" style="fill:#407BFF"></path><path d="M429,221.81H335.94a2.63,2.63,0,0,1-2.62-2.62h0a2.63,2.63,0,0,1,2.62-2.62H429a2.63,2.63,0,0,1,2.62,2.62h0A2.63,2.63,0,0,1,429,221.81Z" style="fill:#fff;opacity:0.6000000000000001"></path><path d="M429,221.81H416.27a2.63,2.63,0,0,1-2.62-2.62h0a2.63,2.63,0,0,1,2.62-2.62H429a2.63,2.63,0,0,1,2.62,2.62h0A2.63,2.63,0,0,1,429,221.81Z" style="fill:#407BFF;opacity:0.6000000000000001"></path><path d="M399.62,212.83h7a3.32,3.32,0,0,1,3.32,3.32V316.44a0,0,0,0,1,0,0H399.62a0,0,0,0,1,0,0V212.83A0,0,0,0,1,399.62,212.83Z" style="fill:#407BFF"></path><rect x="395.73" y="212.83" width="3.89" height="101.17" transform="translate(795.36 526.83) rotate(180)" style="fill:#407BFF"></rect><rect x="395.73" y="212.83" width="3.89" height="101.17" transform="translate(795.36 526.83) rotate(180)" style="opacity:0.2"></rect><rect x="385.46" y="212.83" width="10.28" height="103.61" style="fill:#407BFF"></rect><rect x="381.57" y="212.83" width="3.89" height="101.17" transform="translate(767.03 526.83) rotate(180)" style="fill:#407BFF"></rect><rect x="381.57" y="212.83" width="3.89" height="101.17" transform="translate(767.03 526.83) rotate(180)" style="opacity:0.2"></rect><rect x="371.29" y="212.83" width="10.28" height="103.61" style="fill:#407BFF"></rect><rect x="353.62" y="248.11" width="1" height="15.89" style="fill:#407BFF"></rect><rect x="353.62" y="270.78" width="1" height="7.22" style="fill:#407BFF"></rect><path d="M360.44,212.83h7a0,0,0,0,1,0,0V316.44a0,0,0,0,1,0,0H357.12a0,0,0,0,1,0,0V216.15A3.32,3.32,0,0,1,360.44,212.83Z" style="fill:#407BFF"></path><rect x="367.4" y="212.83" width="3.89" height="101.17" transform="translate(738.69 526.83) rotate(180)" style="fill:#407BFF"></rect><rect x="367.4" y="212.83" width="3.89" height="101.17" transform="translate(738.69 526.83) rotate(180)" style="opacity:0.2"></rect></g></svg>