<svg width="230" height="59" viewBox="0 0 230 59" fill="none" xmlns="http://www.w3.org/2000/svg">
<path d="M1.44 35.96C1.44 32.6 2.112 29.608 3.456 26.984C4.832 24.36 6.784 22.328 9.312 20.888C11.84 19.416 14.816 18.68 18.24 18.68C21.184 18.68 23.808 19.24 26.112 20.36C28.448 21.448 30.336 23 31.776 25.016C33.248 27.032 34.224 29.384 34.704 32.072H23.472C22.96 30.952 22.224 30.088 21.264 29.48C20.336 28.84 19.264 28.52 18.048 28.52C16.256 28.52 14.832 29.192 13.776 30.536C12.752 31.88 12.24 33.688 12.24 35.96C12.24 38.232 12.752 40.04 13.776 41.384C14.832 42.728 16.256 43.4 18.048 43.4C19.264 43.4 20.336 43.096 21.264 42.488C22.224 41.848 22.96 40.968 23.472 39.848H34.704C34.224 42.536 33.248 44.888 31.776 46.904C30.336 48.92 28.448 50.488 26.112 51.608C23.808 52.696 21.184 53.24 18.24 53.24C14.816 53.24 11.84 52.52 9.312 51.08C6.784 49.608 4.832 47.56 3.456 44.936C2.112 42.312 1.44 39.32 1.44 35.96ZM93.0499 42.872L97.3699 25.928H108.698L99.6739 53H86.3779L77.3539 25.928H88.6819L93.0499 42.872ZM116.901 23.768C115.045 23.768 113.557 23.272 112.437 22.28C111.317 21.288 110.757 20.04 110.757 18.536C110.757 17 111.317 15.736 112.437 14.744C113.557 13.72 115.045 13.208 116.901 13.208C118.725 13.208 120.197 13.72 121.317 14.744C122.437 15.736 122.997 17 122.997 18.536C122.997 20.04 122.437 21.288 121.317 22.28C120.197 23.272 118.725 23.768 116.901 23.768ZM122.181 25.928V53H111.525V25.928H122.181ZM145.954 25.736C149.058 25.736 151.474 26.776 153.202 28.856C154.962 30.936 155.842 33.752 155.842 37.304V53H145.234V38.648C145.234 37.368 144.882 36.36 144.178 35.624C143.506 34.856 142.594 34.472 141.442 34.472C140.258 34.472 139.33 34.856 138.658 35.624C137.986 36.36 137.65 37.368 137.65 38.648V53H126.994V25.928H137.65V30.056C138.482 28.776 139.586 27.736 140.962 26.936C142.37 26.136 144.034 25.736 145.954 25.736ZM176.063 24.008C175.487 23.944 175.087 23.912 174.863 23.912C174.063 23.912 173.455 24.072 173.039 24.392C172.623 24.68 172.335 25.192 172.174 25.928H176.063V34.808H172.079V53H161.423V34.808H158.543V25.928H161.423C161.487 22.408 162.591 19.688 164.735 17.768C166.911 15.816 169.951 14.84 173.855 14.84C174.303 14.84 175.039 14.872 176.063 14.936V24.008Z" fill="white"/>
<path d="M200.577 23.1639L208.356 25.4941L206.863 28.528L204.917 27.9446L203.363 31.1053C204.984 31.8558 206.369 32.881 207.415 34.105L211.379 32.7286L210.531 31.2434L214.338 29.9223L217.727 35.86L213.921 37.1811L213.073 35.6975L209.11 37.0739C209.578 38.4986 209.628 39.9871 209.256 41.4289L213.306 42.6411L214.052 41.125L217.944 42.2901L214.956 48.3579L211.067 47.1928L211.813 45.6766L207.763 44.4628C206.8 45.7277 205.486 46.8078 203.917 47.6234L205.681 50.7158L207.585 50.0544L209.279 53.0233L201.667 55.6671L199.973 52.6983L201.875 52.0369L200.11 48.9461C198.283 49.3105 196.374 49.3488 194.525 49.0583L192.971 52.2189L194.917 52.8006L193.423 55.8361L185.644 53.5059L187.138 50.472L189.079 51.0538L190.638 47.8948C189.016 47.1438 187.63 46.1188 186.583 44.895L182.619 46.2714L183.467 47.7566L179.66 49.0778L176.271 43.14L180.077 41.8189L180.923 43.3041L184.888 41.9261C184.424 40.501 184.375 39.013 184.744 37.5711L180.692 36.3589L179.948 37.875L176.056 36.7099L179.044 30.6438L182.933 31.8089L182.185 33.325L186.238 34.5389C187.2 33.273 188.514 32.1917 190.083 31.375L188.319 28.2826L186.415 28.944L184.721 25.9751L192.333 23.3329L194.027 26.3018L192.125 26.9631L193.89 30.0539C195.716 29.6893 197.624 29.6504 199.473 29.9401L201.025 26.7795L199.083 26.1994L200.577 23.1639V23.1639ZM193.113 41.502C192.836 41.8754 192.761 42.3192 192.905 42.7356C193.048 43.1521 193.397 43.5071 193.876 43.7226C194.355 43.9381 194.924 43.9964 195.458 43.8847C195.992 43.773 196.447 43.5004 196.723 43.127C196.86 42.9421 196.948 42.738 196.984 42.5263C197.02 42.3146 197.002 42.0996 196.931 41.8934C196.86 41.6872 196.738 41.4939 196.571 41.3246C196.404 41.1552 196.196 41.0131 195.959 40.9064C195.722 40.7997 195.461 40.7305 195.189 40.7027C194.918 40.6749 194.642 40.689 194.378 40.7443C194.113 40.7996 193.866 40.895 193.649 41.025C193.431 41.155 193.249 41.3171 193.113 41.502V41.502ZM201.167 37.875C200.614 37.875 200.084 38.0462 199.694 38.351C199.303 38.6557 199.083 39.069 199.083 39.5C199.083 39.931 199.303 40.3443 199.694 40.6491C200.084 40.9538 200.614 41.125 201.167 41.125C201.719 41.125 202.249 40.9538 202.64 40.6491C203.031 40.3443 203.25 39.931 203.25 39.5C203.25 39.069 203.031 38.6557 202.64 38.351C202.249 38.0462 201.719 37.875 201.167 37.875ZM193.875 35.2783C193.638 35.3851 193.43 35.5272 193.264 35.6966C193.097 35.866 192.975 36.0593 192.905 36.2655C192.834 36.4717 192.816 36.6868 192.852 36.8984C192.888 37.11 192.977 37.314 193.114 37.4988C193.25 37.6836 193.433 37.8456 193.65 37.9754C193.867 38.1053 194.115 38.2005 194.379 38.2557C194.644 38.3108 194.919 38.3248 195.191 38.2969C195.462 38.2689 195.723 38.1996 195.96 38.0928C196.439 37.877 196.788 37.5219 196.931 37.1055C197.074 36.689 196.998 36.2454 196.722 35.8722C196.445 35.499 195.99 35.2267 195.456 35.1153C194.922 35.0039 194.353 35.0626 193.875 35.2783Z" fill="white"/>
<path d="M59.5771 20.1639L67.3563 22.4941L65.8625 25.528L63.9167 24.9446L62.3625 28.1053C63.9842 28.8558 65.369 29.881 66.4146 31.105L70.3792 29.7286L69.5313 28.2434L73.3375 26.9223L76.7271 32.86L72.9208 34.1811L72.0729 32.6975L68.1104 34.0739C68.5779 35.4986 68.6277 36.9871 68.2563 38.4289L72.3063 39.6411L73.0521 38.125L76.9438 39.2901L73.9563 45.3579L70.0667 44.1928L70.8125 42.6766L66.7625 41.4628C65.8003 42.7277 64.486 43.8078 62.9167 44.6234L64.6813 47.7158L66.5854 47.0544L68.2792 50.0233L60.6667 52.6671L58.9729 49.6983L60.875 49.0369L59.1104 45.9461C57.2831 46.3105 55.374 46.3488 53.525 46.0583L51.9708 49.2189L53.9167 49.8006L52.4229 52.8361L44.6438 50.5059L46.1375 47.472L48.0792 48.0538L49.6375 44.8948C48.0156 44.1438 46.6302 43.1188 45.5833 41.895L41.6188 43.2714L42.4667 44.7566L38.6604 46.0778L35.2708 40.14L39.0771 38.8189L39.9229 40.3041L43.8875 38.9261C43.4241 37.501 43.3749 36.013 43.7438 34.5711L39.6917 33.3589L38.9479 34.875L35.0563 33.7099L38.0438 27.6438L41.9333 28.8089L41.1854 30.325L45.2375 31.5389C46.1996 30.273 47.5139 29.1917 49.0833 28.375L47.3188 25.2826L45.4146 25.944L43.7208 22.9751L51.3333 20.3329L53.0271 23.3018L51.125 23.9631L52.8896 27.0539C54.7161 26.6893 56.6245 26.6504 58.4729 26.9401L60.025 23.7795L58.0833 23.1994L59.5771 20.1639V20.1639ZM52.1125 38.502C51.8362 38.8754 51.7615 39.3192 51.9047 39.7356C52.0479 40.1521 52.3973 40.5071 52.876 40.7226C53.3548 40.9381 53.9237 40.9964 54.4576 40.8847C54.9915 40.773 55.4467 40.5004 55.7229 40.127C55.8597 39.9421 55.9485 39.738 55.9841 39.5263C56.0198 39.3146 56.0017 39.0996 55.9308 38.8934C55.8599 38.6872 55.7376 38.4939 55.5709 38.3246C55.4042 38.1552 55.1964 38.0131 54.9594 37.9064C54.7223 37.7997 54.4606 37.7305 54.1893 37.7027C53.9179 37.6749 53.6422 37.689 53.3778 37.7443C53.1135 37.7996 52.8657 37.895 52.6485 38.025C52.4314 38.155 52.2493 38.3171 52.1125 38.502V38.502ZM60.1667 34.875C59.6141 34.875 59.0842 35.0462 58.6935 35.351C58.3028 35.6557 58.0833 36.069 58.0833 36.5C58.0833 36.931 58.3028 37.3443 58.6935 37.6491C59.0842 37.9538 59.6141 38.125 60.1667 38.125C60.7192 38.125 61.2491 37.9538 61.6398 37.6491C62.0305 37.3443 62.25 36.931 62.25 36.5C62.25 36.069 62.0305 35.6557 61.6398 35.351C61.2491 35.0462 60.7192 34.875 60.1667 34.875ZM52.875 32.2783C52.6381 32.3851 52.4304 32.5272 52.264 32.6966C52.0975 32.866 51.9754 33.0593 51.9047 33.2655C51.834 33.4717 51.816 33.6868 51.8519 33.8984C51.8877 34.11 51.9766 34.314 52.1136 34.4988C52.2505 34.6836 52.4327 34.8456 52.6499 34.9754C52.8671 35.1053 53.1149 35.2005 53.3793 35.2557C53.6436 35.3108 53.9193 35.3248 54.1906 35.2969C54.4619 35.2689 54.7235 35.1996 54.9604 35.0928C55.4389 34.877 55.788 34.5219 55.9308 34.1055C56.0736 33.689 55.9984 33.2454 55.7219 32.8722C55.4453 32.499 54.99 32.2267 54.4561 32.1153C53.9223 32.0039 53.3535 32.0626 52.875 32.2783Z" fill="white"/>
</svg>
