<svg width="500" height="500" viewBox="0 0 500 500" fill="none" xmlns="http://www.w3.org/2000/svg">
<path d="M500 382.4H0V382.65H500V382.4Z" fill="#EBEBEB"/>
<path d="M449.9 398.49H416.78V398.74H449.9V398.49Z" fill="#EBEBEB"/>
<path d="M331.22 401.21H322.53V401.46H331.22V401.21Z" fill="#EBEBEB"/>
<path d="M415.78 389.21H396.59V389.46H415.78V389.21Z" fill="#EBEBEB"/>
<path d="M95.65 390.89H52.46V391.14H95.65V390.89Z" fill="#EBEBEB"/>
<path d="M110.89 390.89H104.56V391.14H110.89V390.89Z" fill="#EBEBEB"/>
<path d="M225.15 395.11H131.47V395.36H225.15V395.11Z" fill="#EBEBEB"/>
<path d="M237 337.8H43.91C42.3973 337.797 40.9476 337.195 39.8789 336.124C38.8102 335.054 38.21 333.603 38.21 332.09V60.66C38.2232 59.156 38.8292 57.718 39.8964 56.6582C40.9637 55.5985 42.406 55.0026 43.91 55H237C238.514 55 239.967 55.6016 241.038 56.6724C242.108 57.7433 242.71 59.1956 242.71 60.71V332.09C242.71 333.604 242.108 335.057 241.038 336.128C239.967 337.198 238.514 337.8 237 337.8V337.8ZM43.91 55.2C42.4637 55.2026 41.0774 55.7791 40.0557 56.8027C39.0339 57.8264 38.46 59.2136 38.46 60.66V332.09C38.46 333.536 39.0339 334.924 40.0557 335.947C41.0774 336.971 42.4637 337.547 43.91 337.55H237C238.447 337.547 239.835 336.971 240.858 335.948C241.881 334.924 242.457 333.537 242.46 332.09V60.66C242.457 59.2127 241.881 57.8255 240.858 56.8021C239.835 55.7787 238.447 55.2026 237 55.2H43.91Z" fill="#EBEBEB"/>
<path d="M453.31 337.8H260.21C258.696 337.797 257.246 337.195 256.175 336.125C255.105 335.054 254.503 333.604 254.5 332.09V60.66C254.516 59.1551 255.124 57.7171 256.193 56.6576C257.262 55.5981 258.705 55.0025 260.21 55H453.31C454.812 55.0052 456.252 55.6022 457.317 56.6617C458.382 57.7212 458.987 59.1578 459 60.66V332.09C459 333.601 458.401 335.05 457.335 336.121C456.268 337.191 454.821 337.795 453.31 337.8V337.8ZM260.21 55.2C258.763 55.2026 257.375 55.7787 256.352 56.8021C255.329 57.8255 254.753 59.2127 254.75 60.66V332.09C254.753 333.537 255.329 334.924 256.352 335.948C257.375 336.971 258.763 337.547 260.21 337.55H453.31C454.757 337.547 456.145 336.971 457.168 335.948C458.191 334.924 458.767 333.537 458.77 332.09V60.66C458.767 59.2127 458.191 57.8255 457.168 56.8021C456.145 55.7787 454.757 55.2026 453.31 55.2H260.21Z" fill="#EBEBEB"/>
<path d="M361.6 251.16H370.3C370.24 245.16 370.3 229.87 370.91 194.86C372 131.41 374 127.54 374 127.54L363.67 158.86C361.223 166.224 359.797 173.889 359.43 181.64C358.33 206.06 362.6 225.55 361.6 251.16Z" fill="#E6E6E6"/>
<path d="M355 149.42C343.41 131.87 320.26 122.71 296.6 114.09C287.31 110.7 313.38 152.7 332.33 171.73C347.06 186.52 361.33 186.19 365.57 200.81C366.39 183.84 365 164.54 355 149.42Z" fill="#E6E6E6"/>
<path d="M368.28 138.15C377.37 117.63 400.34 91.01 426.15 72.26C436.29 64.9 411.28 128.09 393.64 153.99C379.91 174.15 367.1 186.42 365.1 200.81C356.44 182.81 359.2 158.67 368.28 138.15Z" fill="#E6E6E6"/>
<path d="M367.42 270.14C362.507 270.138 357.781 268.259 354.208 264.887C350.635 261.515 348.486 256.905 348.2 252L346.5 234.59H388.34L386.64 252C386.359 256.906 384.211 261.519 380.637 264.892C377.063 268.265 372.334 270.143 367.42 270.14Z" fill="#F0F0F0"/>
<path d="M391.05 234.69H343.79L342.44 228.5H392.4L391.05 234.69Z" fill="#F0F0F0"/>
<path d="M388.72 245.29H346.12L344.9 239.11H389.94L388.72 245.29Z" fill="#F0F0F0"/>
<path d="M76.74 225.68L299.09 225.68V83.78L76.74 83.78L76.74 225.68Z" fill="#E6E6E6"/>
<path d="M71.3 225.68L296.55 225.68V83.78L71.3 83.78L71.3 225.68Z" fill="#F0F0F0"/>
<path d="M76.74 235.79L299.09 235.79V225.68L76.74 225.68V235.79Z" fill="#E6E6E6"/>
<path d="M67.29 225.68H282.43C283.091 225.673 283.746 225.798 284.359 226.046C284.971 226.294 285.528 226.662 285.998 227.127C286.467 227.592 286.84 228.145 287.095 228.755C287.349 229.365 287.48 230.019 287.48 230.68C287.481 231.344 287.352 232.002 287.098 232.616C286.845 233.229 286.473 233.787 286.004 234.257C285.535 234.727 284.978 235.1 284.365 235.355C283.752 235.609 283.094 235.74 282.43 235.74H67.29C65.948 235.74 64.661 235.207 63.712 234.258C62.7631 233.309 62.23 232.022 62.23 230.68V230.68C62.2458 229.348 62.7859 228.077 63.7331 227.141C64.6803 226.205 65.9583 225.68 67.29 225.68V225.68Z" fill="#F0F0F0"/>
<path d="M288.94 218.06V91.4L78.93 91.4V218.06H288.94Z" fill="#FAFAFA"/>
<path d="M274.36 218.06L229.65 91.4H208.54L253.25 218.06H274.36Z" fill="white"/>
<path d="M285.41 175.09C285.264 175.09 285.124 175.032 285.021 174.929C284.918 174.826 284.86 174.686 284.86 174.54V96.36C284.849 96.2822 284.856 96.2031 284.878 96.1279C284.901 96.0528 284.939 95.9833 284.991 95.9242C285.042 95.8651 285.106 95.8177 285.177 95.7853C285.249 95.7528 285.327 95.736 285.405 95.736C285.483 95.736 285.561 95.7528 285.632 95.7853C285.704 95.8177 285.768 95.8651 285.819 95.9242C285.871 95.9833 285.909 96.0528 285.932 96.1279C285.954 96.2031 285.961 96.2822 285.95 96.36V174.54C285.95 174.684 285.893 174.823 285.792 174.925C285.691 175.028 285.554 175.087 285.41 175.09V175.09Z" fill="#F0F0F0"/>
<path d="M248.72 218.06L204.01 91.4H195.78L240.49 218.06H248.72Z" fill="white"/>
<path d="M203.46 218.06L158.75 91.4H137.65L182.35 218.06H203.46Z" fill="white"/>
<path d="M147.36 218.06L102.65 91.4H94.42L139.13 218.06H147.36Z" fill="white"/>
<path d="M79.88 218.06L79.88 91.4H78.91L78.91 218.06H79.88Z" fill="#E6E6E6"/>
<path opacity="0.4" d="M69.5 104.01H291.85L292.55 94.36H70.2L69.5 104.01Z" fill="#E6E6E6"/>
<path opacity="0.4" d="M69.5 111.08H291.85L292.55 101.42H70.2L69.5 111.08Z" fill="#E6E6E6"/>
<path opacity="0.4" d="M69.5 119.55H291.85L292.55 109.9H70.2L69.5 119.55Z" fill="#E6E6E6"/>
<path opacity="0.4" d="M69.5 128.98H291.85L292.55 119.33H70.2L69.5 128.98Z" fill="#E6E6E6"/>
<path opacity="0.4" d="M69.5 140.29H291.85L292.55 130.63H70.2L69.5 140.29Z" fill="#E6E6E6"/>
<path opacity="0.4" d="M69.5 153H291.85L292.55 143.35H70.2L69.5 153Z" fill="#E6E6E6"/>
<path d="M91.6169 381.992C110.124 379.087 122.772 361.729 119.867 343.222C116.962 324.715 99.6049 312.067 81.0979 314.972C62.591 317.877 49.9429 335.234 52.8476 353.741C55.7524 372.248 73.1099 384.896 91.6169 381.992Z" fill="#F5F5F5"/>
<g style="mix-blend-mode:multiply" opacity="0.7">
<path d="M84.46 322.38C81.55 322.26 79.25 321.01 79.31 319.58C79.37 318.15 81.77 317.11 84.68 317.23C87.59 317.35 89.89 318.61 89.83 320.03C89.77 321.45 87.37 322.5 84.46 322.38Z" fill="#E6E6E6"/>
</g>
<g style="mix-blend-mode:multiply" opacity="0.7">
<path d="M69.87 327.5C67.43 329.07 64.82 329.37 64.05 328.18C63.28 326.99 64.64 324.73 67.05 323.18C69.46 321.63 72.05 321.3 72.87 322.5C73.69 323.7 72.32 325.92 69.87 327.5Z" fill="#E6E6E6"/>
</g>
<g style="mix-blend-mode:multiply" opacity="0.7">
<path d="M80.14 334.07C77.48 335.27 74.74 334.92 74.01 333.29C73.28 331.66 74.83 329.37 77.48 328.18C80.13 326.99 82.87 327.33 83.61 328.96C84.35 330.59 82.79 332.87 80.14 334.07Z" fill="#E6E6E6"/>
</g>
<path d="M128.33 382.4H170.46V270.14H128.33V382.4Z" fill="#E6E6E6"/>
<path d="M136.33 382.4H128.32V352.73H144.72L136.33 382.4Z" fill="#F0F0F0"/>
<path d="M368.71 382.4H410.84V270.14H368.71V382.4Z" fill="#E6E6E6"/>
<path d="M128.33 374.3L375.7 374.3V270.14H128.33V374.3Z" fill="#F0F0F0"/>
<path d="M367.69 382.4H375.69V352.73H359.3L367.69 382.4Z" fill="#F0F0F0"/>
<path d="M368.24 361.76H293.36V281.62H368.24V361.76ZM294.91 360.21H366.69V283.21H294.91V360.21Z" fill="#E6E6E6"/>
<path d="M289.45 361.76H214.57V281.62H289.45V361.76ZM216.12 360.21H287.9V283.21H216.12V360.21Z" fill="#E6E6E6"/>
<path d="M210.65 361.76H135.77V281.62H210.65V361.76ZM137.32 360.21H209.1V283.21H137.32V360.21Z" fill="#E6E6E6"/>
<path d="M250 427.56C357.082 427.56 443.89 422.492 443.89 416.24C443.89 409.988 357.082 404.92 250 404.92C142.918 404.92 56.11 409.988 56.11 416.24C56.11 422.492 142.918 427.56 250 427.56Z" fill="#F5F5F5"/>
<path d="M258.29 115.45C243.29 109.68 228.08 124.11 229.29 150.9C230.2 170.9 211.07 168.72 221.07 186.53C231.07 204.34 223.66 216.39 213.07 213.15C221.07 223.23 244.7 215.45 244.77 199.01C244.84 182.57 285.29 206.56 285.29 206.56C285.29 206.56 277.08 221 300 217.65C322.92 214.3 342.81 168.21 342.89 147.74C342.95 134.17 328.45 127.9 321.12 129.23C320.85 111.9 251.29 79.68 258.29 115.45Z" fill="#263238"/>
<path d="M218.09 212.35C215.986 212.352 213.907 211.891 212 211L212.45 210.11C212.45 210.11 217.05 212.41 221.45 210.82C224.11 209.82 226.18 207.66 227.61 204.29L228.53 204.68C226.99 208.32 224.72 210.68 221.78 211.76C220.594 212.17 219.345 212.37 218.09 212.35V212.35Z" fill="#263238"/>
<path d="M222.39 173.42L221.61 172.8C227.14 165.91 226.54 159.63 225.84 152.36C225.21 145.74 224.49 138.23 228.54 129.07C233.09 118.79 239.24 112.68 246.33 111.4C252.25 110.32 258.53 112.82 264.02 118.4L263.31 119.1C258.06 113.74 252.09 111.34 246.51 112.35C239.76 113.57 233.86 119.49 229.51 129.45C225.51 138.37 226.27 145.73 226.89 152.23C227.52 159.44 228.17 166.22 222.39 173.42Z" fill="#263238"/>
<path d="M140.29 283.57L136.58 272.13C135.6 269.102 133.771 266.419 131.31 264.4L127.01 260.86C125.574 260.179 123.964 259.952 122.395 260.21C120.827 260.467 119.374 261.196 118.23 262.3L111.44 268.82C110.017 270.187 109.16 272.04 109.042 274.01C108.923 275.98 109.551 277.922 110.8 279.45L113.71 283C113.71 283 122.47 296.56 133.65 300.86L135.89 298.39C137.683 296.405 139.009 294.043 139.77 291.479C140.532 288.914 140.709 286.212 140.29 283.57V283.57Z" fill="#FF8B7B"/>
<path d="M244.2 275.69L243.64 277.34L243.13 278.8L242.13 281.65C241.44 283.54 240.69 285.37 239.95 287.2C238.46 290.87 236.84 294.45 235.16 298.01C233.48 301.57 231.7 305.08 229.83 308.56C227.96 312.04 226.05 315.48 223.96 318.86C219.826 325.698 215.288 332.283 210.37 338.58C205.359 345.041 199.841 351.094 193.87 356.68C193.11 357.38 192.36 358.09 191.58 358.78L189.21 360.83L188.62 361.34L188.32 361.6L187.59 362.21C186.245 363.293 184.775 364.21 183.21 364.94C181.463 365.751 179.607 366.304 177.7 366.58C175.904 366.841 174.081 366.857 172.28 366.63C169.581 366.282 166.968 365.445 164.57 364.16C162.931 363.279 161.387 362.234 159.96 361.04C157.849 359.28 155.917 357.318 154.19 355.18C151.431 351.757 148.95 348.118 146.77 344.3C144.72 340.73 142.91 337.19 141.2 333.66C137.84 326.57 134.94 319.49 132.35 312.33C129.76 305.17 127.44 298.02 125.49 290.53C125.018 288.572 125.257 286.509 126.165 284.711C127.072 282.912 128.589 281.494 130.444 280.71C132.3 279.926 134.374 279.826 136.296 280.429C138.218 281.031 139.864 282.297 140.94 284L141.04 284.17C148.53 296.53 155.95 309.25 163.84 320.75C165.79 323.63 167.79 326.42 169.84 328.99C171.653 331.388 173.638 333.65 175.78 335.76C176.456 336.434 177.215 337.019 178.04 337.5C178.26 337.61 178.35 337.5 178.04 337.37C177.288 336.927 176.449 336.65 175.58 336.56C174.697 336.44 173.803 336.44 172.92 336.56C171.926 336.696 170.956 336.972 170.04 337.38C169.307 337.707 168.616 338.12 167.98 338.61L167.8 338.76L167.72 338.82L167.77 338.77L167.98 338.55L168.41 338.12L170.1 336.4L171.74 334.62C176.162 329.713 180.257 324.522 184 319.08C187.77 313.53 191.4 307.8 194.7 301.8C198 295.8 201.13 289.68 204.05 283.44C205.51 280.31 206.89 277.16 208.24 274.01L210.24 269.29L211.17 266.96L211.97 264.87L212.23 264.19C213.755 259.947 216.903 256.483 220.982 254.56C225.061 252.638 229.737 252.415 233.98 253.94C238.223 255.465 241.687 258.613 243.61 262.692C245.532 266.771 245.755 271.447 244.23 275.69H244.2Z" fill="#FF8B7B"/>
<path d="M207.85 279.79C208.28 289.65 192.72 312.44 211.93 325.65C214.19 345.56 217.02 365.16 222.33 397.81H322.57C318.45 369.57 319.35 337.39 332.57 273.81C333.297 270.333 333.285 266.741 332.534 263.269C331.784 259.797 330.311 256.521 328.211 253.655C326.112 250.789 323.433 248.397 320.349 246.633C317.265 244.87 313.845 243.775 310.31 243.42C306.31 243.02 302.07 242.68 297.73 242.42C280.87 241.61 267.04 241.07 252.21 242.42C247.3 242.87 242.21 243.49 237.37 244.17C228.903 245.377 221.188 249.694 215.731 256.279C210.273 262.864 207.464 271.246 207.85 279.79V279.79Z" fill="#263238"/>
<path opacity="0.2" d="M207.51 266.53C212.16 271.39 219.09 273.22 222.51 271.71C225.93 270.2 221.79 268.62 218.1 268.43C214.41 268.24 220.25 266.84 226.48 267.52C232.71 268.2 232.17 263.8 225.48 262.65C218.79 261.5 225.58 260.98 231.13 261.38C236.68 261.78 237.3 257.81 230.6 256.38C223.9 254.95 242.93 255.96 236.6 249.38C230.27 242.8 226.97 258.21 226.94 252.58C226.91 246.95 222.04 246.46 221.15 250.95C220.26 255.44 217.98 260.65 218.25 255.09C218.52 249.53 213.42 248.04 212.7 253.09C211.98 258.14 208.88 262.45 209.56 259.48C210.24 256.51 209.38 252.88 206.74 255.2C204.1 257.52 202.87 261.67 207.51 266.53Z" fill="white"/>
<path opacity="0.2" d="M260.53 272.66C255.83 267.85 248.88 266.09 245.53 267.66C242.18 269.23 246.27 270.73 249.97 270.89C253.67 271.05 247.83 272.5 241.6 271.89C235.37 271.28 235.94 275.67 242.6 276.74C249.26 277.81 242.52 278.42 236.96 278.08C231.4 277.74 230.83 281.71 237.54 283.08C244.25 284.45 225.22 283.63 231.61 290.18C238 296.73 241.15 281.24 241.23 286.87C241.31 292.5 246.23 292.94 247.04 288.44C247.85 283.94 250.11 278.71 249.9 284.27C249.69 289.83 254.81 291.27 255.47 286.18C256.13 281.09 259.19 276.78 258.55 279.75C257.91 282.72 258.79 286.36 261.41 284.01C264.03 281.66 265.22 277.47 260.53 272.66Z" fill="white"/>
<path opacity="0.2" d="M193.8 298.08C198.45 302.94 205.39 304.78 208.8 303.26C212.21 301.74 208.09 300.18 204.39 299.99C200.69 299.8 206.54 298.4 212.77 299.08C219 299.76 218.47 295.35 211.77 294.21C205.07 293.07 211.86 292.53 217.42 292.93C222.98 293.33 223.58 289.36 216.89 287.93C210.2 286.5 229.21 287.52 222.89 280.93C216.57 274.34 213.26 289.77 213.23 284.14C213.2 278.51 208.33 278.02 207.44 282.5C206.55 286.98 204.27 292.2 204.54 286.65C204.81 281.1 199.71 279.59 198.99 284.65C198.27 289.71 195.17 294 195.85 291.04C196.53 288.08 195.67 284.43 193.03 286.76C190.39 289.09 189.16 293.23 193.8 298.08Z" fill="white"/>
<path opacity="0.2" d="M246.82 304.21C242.12 299.4 235.17 297.64 231.82 299.21C228.47 300.78 232.57 302.29 236.26 302.44C239.95 302.59 234.13 304.05 227.89 303.44C221.65 302.83 222.24 307.22 228.89 308.3C235.54 309.38 228.81 309.97 223.25 309.63C217.69 309.29 217.13 313.27 223.83 314.63C230.53 315.99 211.51 315.17 217.91 321.72C224.31 328.27 227.44 312.79 227.53 318.41C227.62 324.03 232.53 324.48 233.34 319.99C234.15 315.5 236.41 310.25 236.19 315.81C235.97 321.37 241.1 322.81 241.77 317.72C242.44 312.63 245.48 308.33 244.84 311.3C244.2 314.27 245.08 317.9 247.7 315.55C250.32 313.2 251.52 309 246.82 304.21Z" fill="white"/>
<path opacity="0.2" d="M277.07 275.64C281.71 280.5 288.65 282.33 292.07 280.82C295.49 279.31 291.36 277.73 287.67 277.54C283.98 277.35 289.82 275.95 296.04 276.63C302.26 277.31 301.74 272.91 295.04 271.76C288.34 270.61 295.13 270.09 300.69 270.49C306.25 270.89 306.85 266.92 300.16 265.49C293.47 264.06 312.49 265.07 306.16 258.49C299.83 251.91 296.54 267.32 296.51 261.69C296.48 256.06 291.6 255.57 290.72 260.06C289.84 264.55 287.54 269.76 287.81 264.2C288.08 258.64 282.98 257.15 282.26 262.2C281.54 267.25 278.44 271.56 279.12 268.59C279.8 265.62 278.95 261.99 276.3 264.31C273.65 266.63 272.42 270.78 277.07 275.64Z" fill="white"/>
<path opacity="0.2" d="M330.08 281.77C325.39 276.96 318.43 275.2 315.03 276.77C311.63 278.34 315.78 279.84 319.47 280C323.16 280.16 317.34 281.61 311.1 281C304.86 280.39 305.45 284.78 312.1 285.86C318.75 286.94 312.02 287.53 306.47 287.19C300.92 286.85 300.34 290.82 307.05 292.19C313.76 293.56 294.73 292.73 301.12 299.28C307.51 305.83 310.65 290.34 310.74 295.97C310.83 301.6 315.74 302.04 316.55 297.54C317.36 293.04 319.62 287.81 319.41 293.37C319.2 298.93 324.31 300.37 324.98 295.28C325.65 290.19 328.7 285.89 328.05 288.86C327.4 291.83 328.3 295.46 330.91 293.11C333.52 290.76 334.78 286.58 330.08 281.77Z" fill="white"/>
<path opacity="0.2" d="M263.36 307.2C268.01 312.05 274.94 313.89 278.36 312.37C281.78 310.85 277.64 309.29 273.95 309.1C270.26 308.91 276.1 307.51 282.33 308.19C288.56 308.87 288.02 304.47 281.33 303.32C274.64 302.17 281.43 301.64 286.98 302.04C292.53 302.44 293.15 298.48 286.45 297.04C279.75 295.6 298.78 296.63 292.45 290.04C286.12 283.45 282.82 298.88 282.79 293.25C282.76 287.62 277.89 287.13 277 291.61C276.11 296.09 273.83 301.31 274.1 295.76C274.37 290.21 269.27 288.7 268.54 293.76C267.81 298.82 264.73 303.11 265.4 300.15C266.07 297.19 265.23 293.54 262.59 295.87C259.95 298.2 258.72 302.34 263.36 307.2Z" fill="white"/>
<path opacity="0.2" d="M232.36 338.16C227.66 333.35 220.71 331.59 217.31 333.16C213.91 334.73 218.06 336.23 221.75 336.39C225.44 336.55 219.62 338 213.38 337.39C207.14 336.78 207.73 341.17 214.38 342.24C221.03 343.31 214.3 343.92 208.74 343.58C203.18 343.24 202.62 347.21 209.32 348.58C216.02 349.95 197 349.13 203.4 355.68C209.8 362.23 212.93 346.74 213.02 352.37C213.11 358 218.02 358.44 218.82 353.94C219.62 349.44 221.9 344.21 221.68 349.77C221.46 355.33 226.59 356.77 227.26 351.68C227.93 346.59 230.97 342.28 230.33 345.25C229.69 348.22 230.57 351.86 233.19 349.51C235.81 347.16 237.06 343 232.36 338.16Z" fill="white"/>
<path opacity="0.2" d="M218.65 369.71C213.96 364.9 207 363.14 203.6 364.71C200.2 366.28 204.35 367.79 208.04 367.94C211.73 368.09 205.91 369.55 199.68 368.94C193.45 368.33 194.02 372.72 200.68 373.8C207.34 374.88 200.61 375.47 195.05 375.13C189.49 374.79 188.92 378.77 195.63 380.13C202.34 381.49 183.31 380.67 189.7 387.22C196.09 393.77 199.23 378.29 199.32 383.91C199.41 389.53 204.32 389.98 205.13 385.49C205.94 381 208.2 375.75 207.99 381.31C207.78 386.87 212.89 388.31 213.56 383.22C214.23 378.13 217.28 373.83 216.63 376.8C215.98 379.77 216.88 383.4 219.5 381.05C222.12 378.7 223.35 374.52 218.65 369.71Z" fill="white"/>
<path opacity="0.2" d="M248.9 341.14C253.54 346 260.48 347.83 263.9 346.32C267.32 344.81 263.18 343.23 259.49 343.04C255.8 342.85 261.64 341.45 267.87 342.13C274.1 342.81 273.56 338.41 266.87 337.26C260.18 336.11 266.97 335.59 272.52 335.99C278.07 336.39 278.69 332.42 271.99 330.99C265.29 329.56 284.32 330.57 277.99 323.99C271.66 317.41 268.36 332.82 268.33 327.19C268.3 321.56 263.43 321.07 262.54 325.56C261.65 330.05 259.36 335.26 259.64 329.7C259.92 324.14 254.81 322.65 254.08 327.7C253.35 332.75 250.27 337.06 250.94 334.09C251.61 331.12 250.77 327.49 248.13 329.81C245.49 332.13 244.25 336.28 248.9 341.14Z" fill="white"/>
<path opacity="0.2" d="M235.19 372.7C239.84 377.55 246.77 379.39 250.19 377.87C253.61 376.35 249.48 374.79 245.78 374.6C242.08 374.41 247.93 373.01 254.16 373.69C260.39 374.37 259.85 369.97 253.16 368.82C246.47 367.67 253.25 367.14 258.81 367.54C264.37 367.94 264.97 363.98 258.28 362.54C251.59 361.1 270.6 362.13 264.28 355.54C257.96 348.95 254.65 364.38 254.62 358.75C254.59 353.12 249.72 352.63 248.83 357.11C247.94 361.59 245.66 366.81 245.93 361.26C246.2 355.71 241.1 354.2 240.38 359.26C239.66 364.32 236.56 368.61 237.24 365.65C237.92 362.69 237.06 359.04 234.42 361.37C231.78 363.7 230.55 367.84 235.19 372.7Z" fill="white"/>
<path opacity="0.2" d="M302.08 348.49C297.39 343.68 290.43 341.92 287.03 343.49C283.63 345.06 287.78 346.57 291.47 346.72C295.16 346.87 289.34 348.33 283.1 347.72C276.86 347.11 277.45 351.5 284.1 352.58C290.75 353.66 284.03 354.25 278.47 353.91C272.91 353.57 272.34 357.54 279.05 358.91C285.76 360.28 266.73 359.45 273.12 366C279.51 372.55 282.65 357.06 282.74 362.69C282.83 368.32 287.74 368.76 288.55 364.27C289.36 359.78 291.62 354.53 291.41 360.09C291.2 365.65 296.31 367.09 296.98 362C297.65 356.91 300.7 352.61 300.05 355.58C299.4 358.55 300.3 362.18 302.92 359.83C305.54 357.48 306.78 353.3 302.08 348.49Z" fill="white"/>
<path opacity="0.2" d="M288.38 380.05C283.68 375.24 276.73 373.48 273.33 375.05C269.93 376.62 274.07 378.12 277.77 378.28C281.47 378.44 275.63 379.89 269.4 379.28C263.17 378.67 263.75 383.06 270.4 384.13C277.05 385.2 270.32 385.81 264.76 385.47C259.2 385.13 258.63 389.1 265.34 390.47C272.05 391.84 253.02 391.02 259.41 397.56C265.8 404.1 268.95 388.63 269.04 394.26C269.13 399.89 274.04 400.33 274.84 395.83C275.64 391.33 277.91 386.1 277.7 391.65C277.49 397.2 282.61 398.65 283.27 393.57C283.93 388.49 286.99 384.17 286.35 387.14C285.71 390.11 286.59 393.75 289.21 391.4C291.83 389.05 293.07 384.85 288.38 380.05Z" fill="white"/>
<path opacity="0.2" d="M318.62 351.47C323.27 356.33 330.2 358.17 333.62 356.65C337.04 355.13 332.91 353.57 329.21 353.38C325.51 353.19 331.36 351.79 337.59 352.46C343.82 353.13 343.28 348.74 336.59 347.6C329.9 346.46 336.68 345.92 342.24 346.32C347.8 346.72 348.4 342.75 341.71 341.32C335.02 339.89 354.03 340.91 347.71 334.32C341.39 327.73 338.08 343.15 338.05 337.53C338.02 331.91 333.15 331.41 332.26 335.89C331.37 340.37 329.09 345.59 329.36 340.04C329.63 334.49 324.53 332.98 323.81 338.04C323.09 343.1 319.99 347.39 320.67 344.43C321.35 341.47 320.49 337.82 317.85 340.15C315.21 342.48 314 346.61 318.62 351.47Z" fill="white"/>
<path opacity="0.2" d="M218.46 404.38C223.1 409.24 230.04 411.07 233.46 409.55C236.88 408.03 232.75 406.47 229.06 406.28C225.37 406.09 231.21 404.69 237.44 405.37C243.67 406.05 243.13 401.65 236.44 400.5C229.75 399.35 236.53 398.83 242.09 399.23C247.65 399.63 248.25 395.66 241.56 394.23C234.87 392.8 253.89 393.82 247.56 387.23C241.23 380.64 237.94 396.06 237.91 390.43C237.88 384.8 233 384.31 232.12 388.79C231.24 393.27 228.94 398.5 229.21 392.94C229.48 387.38 224.38 385.89 223.66 390.94C222.94 395.99 219.84 400.29 220.52 397.33C221.2 394.37 220.35 390.73 217.7 393.05C215.05 395.37 213.81 399.52 218.46 404.38Z" fill="white"/>
<path opacity="0.2" d="M304.92 383C309.56 387.86 316.5 389.69 319.92 388.18C323.34 386.67 319.21 385.09 315.52 384.9C311.83 384.71 317.67 383.31 323.9 383.99C330.13 384.67 329.59 380.27 322.9 379.12C316.21 377.97 322.99 377.45 328.55 377.85C334.11 378.25 334.71 374.28 328.02 372.85C321.33 371.42 340.35 372.43 334.02 365.85C327.69 359.27 324.4 374.68 324.37 369.05C324.34 363.42 319.46 362.93 318.58 367.42C317.7 371.91 315.4 377.12 315.67 371.56C315.94 366 310.84 364.56 310.12 369.56C309.4 374.56 306.3 379 307 376C307.7 373 306.83 369.4 304.18 371.72C301.53 374.04 300.27 378.17 304.92 383Z" fill="white"/>
<path opacity="0.2" d="M316.38 313.32C311.68 308.51 304.73 306.75 301.33 308.32C297.93 309.89 302.07 311.39 305.77 311.54C309.47 311.69 303.63 313.15 297.4 312.54C291.17 311.93 291.74 316.32 298.4 317.4C305.06 318.48 298.33 319.08 292.77 318.73C287.21 318.38 286.64 322.37 293.35 323.73C300.06 325.09 281.03 324.27 287.42 330.82C293.81 337.37 296.96 321.89 297.04 327.51C297.12 333.13 302.04 333.58 302.85 329.09C303.66 324.6 305.92 319.36 305.71 324.91C305.5 330.46 310.61 331.91 311.28 326.83C311.95 321.75 315 317.43 314.36 320.4C313.72 323.37 314.6 327.01 317.22 324.65C319.84 322.29 321.07 318.13 316.38 313.32Z" fill="white"/>
<path opacity="0.2" d="M319.21 228.75C314.51 223.94 307.56 222.18 304.21 223.75C300.86 225.32 304.95 226.82 308.65 226.98C312.35 227.14 306.52 228.59 300.28 227.98C294.04 227.37 294.63 231.76 301.28 232.84C307.93 233.92 301.2 234.51 295.64 234.17C290.08 233.83 289.52 237.8 296.22 239.17C302.92 240.54 283.9 239.71 290.3 246.26C296.7 252.81 299.83 237.32 299.92 242.95C300.01 248.58 304.92 249.02 305.72 244.52C306.52 240.02 308.8 234.79 308.58 240.35C308.36 245.91 313.49 247.35 314.16 242.26C314.83 237.17 317.87 232.87 317.23 235.84C316.59 238.81 317.47 242.44 320.09 240.09C322.71 237.74 323.9 233.56 319.21 228.75Z" fill="white"/>
<path opacity="0.2" d="M309.72 268.88C307.93 283.69 314.24 310.14 322.95 329.93C324.47 317.56 326.74 303.54 329.89 287.3L309.72 268.88Z" fill="black"/>
<path d="M302.4 242.78C300.88 242.68 299.33 242.59 297.77 242.51C280.91 241.69 267.08 241.16 252.25 242.51L248.37 242.9C244.997 248.262 243.124 254.431 242.948 260.763C242.772 267.096 244.299 273.359 247.37 278.9L249.37 282.64L252.22 279.49C272.6 257 298.13 245 298.39 244.85L302.39 242.78H302.4Z" fill="white"/>
<path d="M293.26 191.26C290.39 205.9 287.53 232.74 297.77 242.51C297.77 242.51 271.08 254.17 250 277.46C239.7 258.35 252.25 242.51 252.25 242.51C268.59 238.61 268.16 226.51 265.32 215.11L293.26 191.26Z" fill="#FF8B7B"/>
<path opacity="0.2" d="M281.87 201L265.33 215.1C266.037 217.746 266.509 220.45 266.74 223.18C272.98 222.28 281.55 215.43 282.21 208.9C282.575 206.268 282.46 203.591 281.87 201Z" fill="black"/>
<path d="M308.71 164.39C303 188.21 301.08 198.39 286.96 208.66C265.73 224.07 238.31 211.91 236.96 186.88C235.72 164.35 245.27 129.18 270.08 123.69C294.49 118.28 314.43 140.57 308.71 164.39Z" fill="#EA8B8B"/>
<path d="M310.78 134.44C287 154.78 263.83 121.18 250 137.73C242 130.61 264.54 112.28 278.1 111.61C291.66 110.94 321.05 120.28 310.78 134.44Z" fill="#263238"/>
<path d="M254.1 134.33C254.1 134.33 251.56 127.28 253 122.87C249.22 124.44 247.91 137.16 250 137.73C252.92 138.53 254.1 134.33 254.1 134.33Z" fill="#407BFF"/>
<path d="M307.11 132.5C282.22 141.61 293.25 189.5 314.66 186.59C336.07 183.68 332.56 136.94 307.11 132.5Z" fill="#263238"/>
<path d="M273.4 164.65C273.06 166.65 271.74 168.02 270.46 167.79C269.18 167.56 268.46 165.79 268.76 163.79C269.06 161.79 270.43 160.42 271.71 160.65C272.99 160.88 273.75 162.69 273.4 164.65Z" fill="#263238"/>
<path d="M249.23 160.73C248.89 162.73 247.57 164.09 246.29 163.86C245.01 163.63 244.29 161.86 244.59 159.86C244.89 157.86 246.26 156.5 247.54 156.72C248.82 156.94 249.58 158.77 249.23 160.73Z" fill="#263238"/>
<path d="M248.09 157L243.62 154.81C243.62 154.81 245.39 158.89 248.09 157Z" fill="#263238"/>
<path d="M255.39 165.13C255.39 165.13 250.56 172.98 246.18 176.41C248.34 179.28 252.94 178.95 252.94 178.95L255.39 165.13Z" fill="#BD4946"/>
<path d="M310.37 187.55C308.809 189.252 306.905 190.603 304.782 191.513C302.66 192.423 300.369 192.872 298.06 192.83C292.22 192.52 291.55 185.77 295.06 180.34C298.21 175.45 305.06 169.72 310 172.69C314.94 175.66 314.6 183.13 310.37 187.55Z" fill="#FF8B7B"/>
<path d="M274.86 186.44C274.693 184.438 274.95 182.423 275.616 180.528C276.281 178.632 277.339 176.899 278.72 175.44C277.782 175.544 276.91 175.976 276.26 176.66C275.055 177.915 274.13 179.412 273.545 181.051C272.961 182.691 272.731 184.435 272.87 186.17C273.09 189.71 275.52 192.91 278.51 193.63C277.443 192.744 276.569 191.649 275.941 190.413C275.313 189.176 274.945 187.824 274.86 186.44V186.44Z" fill="#FF8B7B"/>
<path opacity="0.2" d="M274.86 186.44C274.693 184.438 274.95 182.423 275.616 180.528C276.281 178.632 277.339 176.899 278.72 175.44C277.782 175.544 276.91 175.976 276.26 176.66C275.055 177.915 274.13 179.412 273.545 181.051C272.961 182.691 272.731 184.435 272.87 186.17C273.09 189.71 275.52 192.91 278.51 193.63C277.443 192.744 276.569 191.649 275.941 190.413C275.313 189.176 274.945 187.824 274.86 186.44V186.44Z" fill="black"/>
<path d="M281.4 156.74C281.25 156.688 281.111 156.606 280.993 156.499C280.874 156.393 280.778 156.264 280.71 156.12C280.141 154.768 279.259 153.571 278.138 152.625C277.017 151.68 275.688 151.013 274.26 150.68C274.108 150.657 273.961 150.604 273.829 150.525C273.697 150.445 273.582 150.34 273.491 150.216C273.4 150.093 273.333 149.952 273.296 149.802C273.259 149.653 273.252 149.497 273.275 149.345C273.298 149.193 273.351 149.046 273.43 148.914C273.51 148.782 273.615 148.667 273.738 148.576C273.862 148.485 274.003 148.418 274.153 148.381C274.302 148.344 274.458 148.337 274.61 148.36C276.425 148.751 278.119 149.572 279.551 150.754C280.983 151.935 282.111 153.443 282.84 155.15C282.934 155.358 282.965 155.588 282.929 155.813C282.894 156.038 282.794 156.248 282.641 156.417C282.488 156.585 282.289 156.706 282.069 156.763C281.848 156.821 281.616 156.813 281.4 156.74V156.74Z" fill="#263238"/>
<path d="M241.32 149.83C241.019 149.848 240.722 149.752 240.49 149.56C240.373 149.462 240.276 149.341 240.205 149.206C240.135 149.07 240.092 148.922 240.079 148.769C240.066 148.617 240.083 148.463 240.13 148.317C240.176 148.172 240.251 148.037 240.35 147.92C241.502 146.464 242.988 145.307 244.681 144.547C246.375 143.786 248.227 143.444 250.08 143.55C250.382 143.592 250.655 143.751 250.842 143.992C251.029 144.233 251.114 144.537 251.08 144.84C251.035 145.143 250.875 145.416 250.632 145.603C250.39 145.789 250.084 145.874 249.78 145.84C248.312 145.779 246.851 146.068 245.517 146.683C244.184 147.299 243.016 148.223 242.11 149.38C242.016 149.505 241.898 149.61 241.762 149.687C241.626 149.765 241.476 149.813 241.32 149.83V149.83Z" fill="#263238"/>
<path d="M272.26 160.9L267.79 158.71C267.79 158.71 269.56 162.81 272.26 160.9Z" fill="#263238"/>
<path d="M293.2 394.19C292.578 391.59 291.381 389.162 289.697 387.086C288.013 385.009 285.885 383.336 283.47 382.19L272.41 377C270.798 376.24 269.026 375.883 267.246 375.96C265.465 376.036 263.73 376.544 262.19 377.44L257.19 380.34C255.818 381.143 254.722 382.343 254.047 383.782C253.372 385.222 253.15 386.832 253.41 388.4L254.95 397.69C255.277 399.635 256.323 401.386 257.881 402.596C259.439 403.806 261.395 404.385 263.36 404.22L267.93 403.83C267.93 403.83 284.06 404.27 293.93 397.48L293.2 394.19Z" fill="#FF8B7B"/>
<path d="M328.87 254.83L329.87 256.2L330.78 257.43L332.52 259.84C333.67 261.44 334.74 263.06 335.82 264.68C337.97 267.91 339.98 271.2 341.94 274.54C343.9 277.88 345.75 281.25 347.53 284.69C349.31 288.13 351.03 291.6 352.62 295.15C359.3 309.546 364.009 324.776 366.62 340.43C366.88 342.43 367.22 344.43 367.4 346.5L367.71 349.56L367.76 350.13L367.81 351.13C367.849 351.796 367.849 352.464 367.81 353.13C367.81 353.79 367.73 354.47 367.65 355.13C367.57 355.79 367.44 356.38 367.32 357C366.839 359.177 366.076 361.281 365.05 363.26C364.222 364.842 363.251 366.345 362.15 367.75C360.386 369.953 358.395 371.964 356.21 373.75C352.706 376.572 348.939 379.05 344.96 381.15C341.28 383.09 337.65 384.73 334.03 386.24C330.41 387.75 326.79 389.02 323.18 390.24C319.57 391.46 315.94 392.53 312.32 393.53C308.7 394.53 305.05 395.42 301.4 396.26C299.57 396.66 297.74 397.03 295.9 397.4C294.06 397.77 292.24 398.05 290.28 398.4C288.259 398.769 286.172 398.392 284.408 397.339C282.643 396.287 281.32 394.63 280.684 392.676C280.048 390.723 280.142 388.605 280.948 386.715C281.755 384.825 283.219 383.292 285.07 382.4L285.39 382.25C297.94 376.01 310.89 369.71 322.29 362.73C325.14 361 327.87 359.2 330.34 357.36C332.598 355.784 334.698 353.992 336.61 352.01C337.176 351.44 337.645 350.781 338 350.06C338.21 349.67 337.8 349.79 337.44 351.06C337.386 351.233 337.346 351.41 337.32 351.59C337.32 351.79 337.25 352.01 337.24 352.22C337.23 352.43 337.24 352.66 337.24 352.89C337.24 353.12 337.24 353.12 337.24 353.23V353.32V353.17L336.81 350.86C336.55 349.32 336.15 347.77 335.81 346.23C332.618 333.538 327.995 321.249 322.03 309.6C319.09 303.6 315.8 297.72 312.39 291.92C310.67 289.02 308.88 286.17 307.09 283.34L304.35 279.17L302.99 277.17L301.75 275.38L301.33 274.78C300.017 272.974 299.072 270.928 298.55 268.757C298.028 266.586 297.938 264.334 298.286 262.128C298.989 257.674 301.433 253.682 305.08 251.03C308.727 248.378 313.278 247.283 317.732 247.986C319.937 248.334 322.052 249.114 323.957 250.279C325.861 251.445 327.517 252.974 328.83 254.78L328.87 254.83Z" fill="#FF8B7B"/>
<path d="M136.32 226.72C136.041 226.711 135.769 226.81 135.56 226.996C135.352 227.183 135.223 227.442 135.2 227.72L134.66 240.18C134.652 240.372 134.597 240.559 134.502 240.726C134.406 240.893 134.271 241.034 134.11 241.138C133.948 241.242 133.764 241.305 133.572 241.323C133.381 241.341 133.188 241.312 133.01 241.24L131.01 240.41C130.783 240.315 130.591 240.153 130.459 239.945C130.327 239.738 130.261 239.496 130.27 239.25L130.82 226.46C130.84 226.312 130.828 226.161 130.786 226.018C130.745 225.874 130.673 225.741 130.578 225.626C130.482 225.511 130.363 225.418 130.229 225.352C130.095 225.285 129.949 225.247 129.799 225.24C129.65 225.233 129.501 225.257 129.361 225.311C129.222 225.365 129.095 225.447 128.989 225.552C128.883 225.657 128.8 225.784 128.745 225.923C128.69 226.062 128.664 226.211 128.67 226.36L128.12 239.16C128.109 239.406 128.022 239.642 127.872 239.837C127.722 240.032 127.515 240.176 127.28 240.25L125.21 240.9C125.027 240.958 124.832 240.971 124.642 240.938C124.453 240.904 124.274 240.826 124.121 240.71C123.968 240.593 123.846 240.441 123.764 240.267C123.682 240.093 123.643 239.902 123.65 239.71L124.19 227.25C124.196 227.108 124.174 226.967 124.125 226.833C124.076 226.7 124.002 226.578 123.905 226.473C123.809 226.369 123.694 226.284 123.565 226.224C123.436 226.165 123.297 226.131 123.155 226.125C123.013 226.119 122.872 226.141 122.738 226.19C122.605 226.239 122.483 226.313 122.378 226.41C122.274 226.506 122.189 226.621 122.129 226.75C122.07 226.879 122.036 227.018 122.03 227.16L121.42 241.32C121.362 242.731 121.693 244.13 122.378 245.365C123.062 246.599 124.073 247.622 125.3 248.32C125.914 248.672 126.413 249.195 126.736 249.825C127.059 250.455 127.193 251.166 127.12 251.87C126.32 259.77 124.39 278.67 122.87 291.43C120.87 307.9 123.41 310.87 126.1 310.99C128.79 311.11 131.56 308.36 131.01 291.78C130.59 278.94 130.29 259.94 130.17 252C130.158 251.292 130.353 250.596 130.729 249.996C131.105 249.396 131.648 248.918 132.29 248.62C133.573 248.03 134.669 247.099 135.457 245.927C136.245 244.756 136.696 243.39 136.76 241.98L137.37 227.82C137.373 227.536 137.265 227.262 137.069 227.057C136.872 226.851 136.604 226.73 136.32 226.72Z" fill="#263238"/>
<path d="M118.42 212.66C114.72 224.22 131.9 240.84 146.01 231.59C135.59 223.2 118.42 212.66 118.42 212.66Z" fill="#407BFF"/>
<path opacity="0.5" d="M121.62 214.66C119.62 223.44 132.11 235.31 142.71 229.03C135.4 223.51 126.34 217.65 121.62 214.66Z" fill="white"/>
<path d="M443.89 395.26H56.11V407.93H443.89V395.26Z" fill="#407BFF"/>
<path opacity="0.2" d="M443.89 400.88H56.11V402.31H443.89V400.88Z" fill="black"/>
<path d="M428.33 412.88H71.67L61.67 407.93H438.33L428.33 412.88Z" fill="#407BFF"/>
<path opacity="0.5" d="M428.33 412.88H71.67L61.67 407.93H438.33L428.33 412.88Z" fill="white"/>
<path d="M124.34 360.35C120.88 357.14 110.58 362.35 111.2 355.81C111.82 349.27 104.88 354.01 103.92 347.61C102.96 341.21 112.27 343.07 108.33 338.11C104.39 333.15 107.53 326.67 113.57 326.6C119.61 326.53 117.9 334.29 123.1 330.77C128.82 326.9 133.54 330.32 133.56 335.48C133.58 340.64 138.35 337.73 140.28 343.14C142.82 350.26 131.17 351.03 133.48 355.26C135.79 359.49 130.05 365.63 124.34 360.35Z" fill="#407BFF"/>
<path opacity="0.4" d="M124.34 360.35C120.88 357.14 110.58 362.35 111.2 355.81C111.82 349.27 104.88 354.01 103.92 347.61C102.96 341.21 112.27 343.07 108.33 338.11C104.39 333.15 107.53 326.67 113.57 326.6C119.61 326.53 117.9 334.29 123.1 330.77C128.82 326.9 133.54 330.32 133.56 335.48C133.58 340.64 138.35 337.73 140.28 343.14C142.82 350.26 131.17 351.03 133.48 355.26C135.79 359.49 130.05 365.63 124.34 360.35Z" fill="white"/>
<path d="M123.72 357.76C119.85 352.83 112.22 360.13 112.72 354.6C113.22 349.07 105.72 352.4 106.39 346.96C107.06 341.52 115.24 341.31 110.72 338.39C106.2 335.47 108.82 328.66 113.95 328.6C119.08 328.54 118.24 335.67 122.65 332.69C127.49 329.41 131.49 332.31 131.51 336.69C131.53 341.07 136 338.69 138.4 342.97C142.56 350.31 128.56 349.14 132.17 354.16C134.58 357.46 128.71 364.11 123.72 357.76Z" fill="#407BFF"/>
<path opacity="0.4" d="M123.35 356.26C120.19 351.95 113.48 357.96 114.09 353.26C114.7 348.56 108.2 351.19 108.91 346.57C109.62 341.95 116.6 342 112.84 339.39C109.08 336.78 111.49 331.04 115.84 331.13C120.19 331.22 119.29 337.28 123.14 334.86C127.36 332.2 130.69 334.79 130.58 338.51C130.47 342.23 134.35 340.38 136.28 344.05C139.62 350.43 127.72 349.05 130.66 353.42C132.62 356.31 127.43 361.82 123.35 356.26Z" fill="white"/>
<path d="M105.59 351.62C106.07 360.62 114.44 378.35 135.26 372.2C134.08 359.91 123.58 351.85 105.59 351.62Z" fill="#407BFF"/>
<path opacity="0.3" d="M105.59 351.62C106.07 360.62 114.44 378.35 135.26 372.2C134.08 359.91 123.58 351.85 105.59 351.62Z" fill="black"/>
<path d="M108.42 353.93C110.666 355.943 113.078 357.763 115.63 359.37C118.17 361.04 120.77 362.64 123.36 364.23C125.95 365.82 128.61 367.34 131.23 368.88L139.06 373.57C139.148 373.618 139.215 373.697 139.247 373.792C139.279 373.887 139.275 373.99 139.235 374.082C139.195 374.174 139.122 374.247 139.03 374.287C138.938 374.328 138.835 374.332 138.74 374.3C135.783 373.37 132.93 372.133 130.23 370.61C127.53 369.13 124.91 367.52 122.31 365.88C119.71 364.24 117.18 362.48 114.71 360.64C113.47 359.72 112.25 358.78 111.08 357.75C109.872 356.752 108.767 355.637 107.78 354.42C107.718 354.335 107.69 354.23 107.703 354.126C107.716 354.022 107.769 353.927 107.85 353.86C107.925 353.799 108.018 353.766 108.115 353.766C108.212 353.766 108.305 353.799 108.38 353.86L108.42 353.93Z" fill="#407BFF"/>
<path d="M115.15 360.4H115.09C115.039 360.393 114.989 360.375 114.944 360.348C114.9 360.322 114.861 360.286 114.83 360.245C114.799 360.203 114.777 360.155 114.765 360.104C114.753 360.054 114.751 360.001 114.76 359.95C115.101 358.254 114.924 356.494 114.25 354.9C114.2 354.807 114.189 354.698 114.219 354.597C114.249 354.496 114.318 354.411 114.41 354.36C114.456 354.334 114.506 354.317 114.558 354.311C114.611 354.305 114.664 354.31 114.714 354.325C114.765 354.34 114.811 354.365 114.852 354.398C114.893 354.432 114.926 354.473 114.95 354.52C115.725 356.262 115.935 358.203 115.55 360.07C115.532 360.163 115.482 360.246 115.409 360.306C115.336 360.366 115.244 360.399 115.15 360.4V360.4Z" fill="#407BFF"/>
<path d="M114.47 367.34C114.364 367.34 114.262 367.298 114.187 367.223C114.112 367.148 114.07 367.046 114.07 366.94C114.07 366.834 114.112 366.732 114.187 366.657C114.262 366.582 114.364 366.54 114.47 366.54C114.47 366.54 119.29 366.1 120.67 363.68C120.694 363.63 120.728 363.586 120.77 363.55C120.811 363.514 120.86 363.487 120.913 363.471C120.966 363.454 121.021 363.449 121.076 363.456C121.131 363.462 121.184 363.479 121.231 363.507C121.279 363.535 121.32 363.572 121.353 363.616C121.386 363.661 121.409 363.711 121.421 363.765C121.433 363.819 121.434 363.875 121.423 363.929C121.413 363.983 121.391 364.035 121.36 364.08C119.77 366.86 114.75 367.32 114.54 367.34H114.47Z" fill="#407BFF"/>
<path d="M126.32 367.57C126.255 367.566 126.193 367.545 126.138 367.511C126.083 367.476 126.037 367.428 126.005 367.372C125.974 367.315 125.957 367.252 125.956 367.187C125.955 367.122 125.97 367.058 126 367C127.63 363.95 125 359.81 125 359.76C124.971 359.716 124.95 359.667 124.941 359.616C124.931 359.564 124.932 359.511 124.943 359.459C124.954 359.408 124.975 359.359 125.006 359.317C125.036 359.274 125.075 359.237 125.12 359.21C125.209 359.153 125.317 359.134 125.42 359.157C125.523 359.179 125.613 359.242 125.67 359.33C125.79 359.52 128.59 363.91 126.74 367.33C126.709 367.413 126.65 367.482 126.573 367.525C126.496 367.569 126.407 367.585 126.32 367.57V367.57Z" fill="#407BFF"/>
<path d="M127.08 371.74C126.977 371.74 126.878 371.701 126.804 371.63C126.73 371.559 126.685 371.463 126.68 371.36C126.677 371.255 126.715 371.152 126.786 371.074C126.857 370.996 126.955 370.948 127.06 370.94C128.342 370.767 129.556 370.26 130.58 369.47C130.623 369.439 130.671 369.417 130.722 369.405C130.773 369.393 130.827 369.391 130.879 369.399C130.931 369.407 130.98 369.426 131.025 369.454C131.07 369.481 131.109 369.517 131.14 369.56C131.171 369.603 131.193 369.651 131.205 369.702C131.217 369.754 131.219 369.807 131.211 369.859C131.203 369.911 131.184 369.961 131.156 370.005C131.129 370.05 131.093 370.089 131.05 370.12C129.886 371.009 128.504 371.568 127.05 371.74H127.08Z" fill="#407BFF"/>
<path d="M165.62 336.79C153.3 337.38 128.94 348.74 137.22 377.31C154.06 375.76 165.18 361.43 165.62 336.79Z" fill="#407BFF"/>
<path opacity="0.3" d="M165.62 336.79C153.3 337.38 128.94 348.74 137.22 377.31C154.06 375.76 165.18 361.43 165.62 336.79Z" fill="black"/>
<path d="M162.44 340.65C159.673 343.707 157.183 347.003 155 350.5C152.69 353.97 150.46 357.5 148.27 361.06C146.08 364.62 143.98 368.22 141.85 371.81L135.37 382.49C135.332 382.552 135.282 382.606 135.224 382.648C135.165 382.691 135.098 382.722 135.028 382.738C134.957 382.755 134.884 382.758 134.812 382.746C134.74 382.734 134.672 382.708 134.61 382.67C134.507 382.608 134.427 382.514 134.383 382.401C134.34 382.289 134.335 382.165 134.37 382.05C135.664 378.004 137.38 374.106 139.49 370.42C141.49 366.73 143.75 363.15 146.01 359.6C148.27 356.05 150.69 352.6 153.23 349.21C154.5 347.52 155.81 345.86 157.23 344.27C158.611 342.625 160.148 341.118 161.82 339.77C161.876 339.726 161.941 339.694 162.01 339.676C162.078 339.657 162.15 339.652 162.221 339.662C162.291 339.671 162.36 339.694 162.421 339.73C162.483 339.766 162.537 339.813 162.58 339.87C162.667 339.97 162.714 340.098 162.714 340.23C162.714 340.362 162.667 340.49 162.58 340.59L162.44 340.65Z" fill="#407BFF"/>
<path d="M156.62 350.6C155.735 350.596 154.852 350.519 153.98 350.37C153.91 350.358 153.842 350.333 153.782 350.295C153.722 350.257 153.669 350.208 153.628 350.15C153.587 350.092 153.557 350.026 153.541 349.957C153.525 349.887 153.523 349.815 153.535 349.745C153.547 349.675 153.572 349.607 153.61 349.547C153.648 349.487 153.697 349.434 153.755 349.393C153.813 349.352 153.879 349.322 153.948 349.306C154.018 349.29 154.09 349.288 154.16 349.3C156.481 349.784 158.895 349.55 161.08 348.63C161.146 348.596 161.217 348.575 161.291 348.569C161.365 348.562 161.439 348.57 161.51 348.593C161.58 348.615 161.646 348.651 161.702 348.698C161.759 348.746 161.806 348.804 161.84 348.87C161.874 348.936 161.895 349.007 161.901 349.081C161.908 349.155 161.9 349.229 161.877 349.3C161.855 349.37 161.819 349.436 161.772 349.492C161.724 349.549 161.666 349.596 161.6 349.63C160.035 350.327 158.332 350.658 156.62 350.6V350.6Z" fill="#407BFF"/>
<path d="M148.72 358.33C148.624 358.328 148.531 358.301 148.45 358.25C144.65 356.07 144.05 349.18 144.02 348.89C144.009 348.746 144.055 348.603 144.149 348.492C144.242 348.382 144.376 348.313 144.52 348.3C144.664 348.289 144.807 348.335 144.918 348.429C145.028 348.522 145.097 348.656 145.11 348.8C145.11 348.87 145.69 355.41 148.99 357.31C149.052 357.345 149.106 357.392 149.15 357.449C149.193 357.505 149.225 357.57 149.244 357.638C149.263 357.707 149.267 357.779 149.258 357.85C149.249 357.92 149.226 357.988 149.19 358.05C149.145 358.135 149.077 358.206 148.994 358.255C148.911 358.305 148.816 358.33 148.72 358.33V358.33Z" fill="#407BFF"/>
<path d="M147.59 366.44C146.309 366.46 145.043 366.157 143.91 365.56C143.845 365.527 143.788 365.482 143.742 365.427C143.695 365.371 143.661 365.307 143.64 365.238C143.619 365.168 143.613 365.095 143.622 365.024C143.63 364.952 143.654 364.883 143.69 364.82C143.724 364.756 143.769 364.7 143.825 364.655C143.881 364.609 143.945 364.575 144.014 364.554C144.083 364.534 144.155 364.527 144.226 364.535C144.298 364.543 144.367 364.565 144.43 364.6C148.6 366.85 154.29 363.27 154.34 363.23C154.401 363.191 154.469 363.165 154.54 363.152C154.612 363.14 154.685 363.142 154.755 363.157C154.826 363.173 154.893 363.203 154.952 363.244C155.011 363.286 155.061 363.339 155.1 363.4C155.139 363.46 155.165 363.528 155.177 363.598C155.189 363.669 155.188 363.741 155.172 363.811C155.156 363.88 155.127 363.946 155.085 364.005C155.043 364.063 154.991 364.112 154.93 364.15C152.716 365.52 150.191 366.308 147.59 366.44Z" fill="#407BFF"/>
<path d="M140.55 371.78C140.463 371.781 140.378 371.76 140.301 371.72C140.225 371.68 140.159 371.621 140.11 371.55C138.907 369.971 138.148 368.1 137.91 366.13C137.905 365.986 137.956 365.845 138.053 365.739C138.151 365.632 138.286 365.568 138.43 365.56C138.501 365.555 138.573 365.564 138.641 365.587C138.708 365.609 138.77 365.646 138.824 365.693C138.877 365.741 138.92 365.799 138.95 365.864C138.981 365.928 138.998 365.999 139 366.07C139.236 367.829 139.925 369.497 141 370.91C141.043 370.968 141.073 371.033 141.09 371.103C141.107 371.172 141.11 371.244 141.099 371.315C141.088 371.386 141.063 371.454 141.025 371.515C140.988 371.575 140.938 371.628 140.88 371.67C140.784 371.741 140.669 371.779 140.55 371.78V371.78Z" fill="#407BFF"/>
<path d="M124 353.46C134 362.96 159.42 353.66 157 334.68C143.23 341.16 124 353.46 124 353.46Z" fill="#407BFF"/>
<path opacity="0.2" d="M127.6 351.19C135.6 357.59 153.86 350.71 152.7 336.79C143.46 341.51 133 347.85 127.6 351.19Z" fill="white"/>
<path d="M150.22 389.23C140.81 399.23 114.86 391.41 116.22 372.32C130.31 378 150.22 389.23 150.22 389.23Z" fill="#407BFF"/>
<path opacity="0.2" d="M146.48 387.16C138.88 394 120.23 388.16 120.61 374.16C130.11 378.38 140.91 384.13 146.48 387.16Z" fill="white"/>
<path d="M175.68 350.06C172.74 352.33 176.18 360.11 170.84 359.19C165.5 358.27 168.84 363.61 163.44 363.83C158.04 364.05 160.39 357.5 156 360C151.61 362.5 146.47 359.75 146.91 355.4C147.35 351.05 153.64 352.84 151.16 348.85C148.44 344.45 151.66 341.31 155.92 341.66C160.18 342.01 158.19 338.38 162.82 337.39C168.92 336.07 168.59 344.51 172.28 343.16C175.97 341.81 180.53 346.34 175.68 350.06Z" fill="#407BFF"/>
<path opacity="0.4" d="M175.68 350.06C172.74 352.33 176.18 360.11 170.84 359.19C165.5 358.27 168.84 363.61 163.44 363.83C158.04 364.05 160.39 357.5 156 360C151.61 362.5 146.47 359.75 146.91 355.4C147.35 351.05 153.64 352.84 151.16 348.85C148.44 344.45 151.66 341.31 155.92 341.66C160.18 342.01 158.19 338.38 162.82 337.39C168.92 336.07 168.59 344.51 172.28 343.16C175.97 341.81 180.53 346.34 175.68 350.06Z" fill="white"/>
<path d="M173.49 350.33C169.09 352.75 174.49 358.77 169.96 357.99C165.43 357.21 167.56 362.85 163.11 361.99C158.66 361.13 159.17 355.22 156.39 358.26C153.61 361.3 148.18 358.92 148.55 355.26C148.92 351.6 154.76 352.69 152.66 349.26C150.36 345.53 153.09 342.87 156.66 343.17C160.23 343.47 158.72 340.09 162.43 338.67C168.85 336.21 166.72 346.19 171.17 343.96C174.15 342.49 179.16 347.19 173.49 350.33Z" fill="#407BFF"/>
<path opacity="0.4" d="M172.22 350.48C168.39 352.48 172.8 357.7 168.96 356.93C165.12 356.16 166.76 361.01 162.96 360.17C159.16 359.33 159.82 354.3 157.34 356.82C154.86 359.34 150.34 357.19 150.76 354.05C151.18 350.91 156.14 352.05 154.46 349.05C152.61 345.82 155.03 343.62 158.1 343.96C161.17 344.3 159.95 341.39 163.16 340.26C168.71 338.32 166.57 346.78 170.44 344.98C173 343.82 177.15 348 172.22 350.48Z" fill="white"/>
<path d="M138.32 378.4C142.02 375.54 139 366.45 145.09 367.25C151.18 368.05 147.99 361.86 154.26 361.25C160.53 360.64 157.02 368.63 162.48 365.43C167.94 362.23 173.48 365.19 172.48 370.43C171.48 375.67 164.35 373.86 166.73 378.49C169.34 383.58 165.21 387.49 160.3 387.33C155.39 387.17 157.3 391.33 151.76 392.82C144.51 394.73 145.95 384.65 141.5 386.47C137.05 388.29 132.23 383.12 138.32 378.4Z" fill="#407BFF"/>
<path opacity="0.4" d="M138.32 378.4C142.02 375.54 139 366.45 145.09 367.25C151.18 368.05 147.99 361.86 154.26 361.25C160.53 360.64 157.02 368.63 162.48 365.43C167.94 362.23 173.48 365.19 172.48 370.43C171.48 375.67 164.35 373.86 166.73 378.49C169.34 383.58 165.21 387.49 160.3 387.33C155.39 387.17 157.3 391.33 151.76 392.82C144.51 394.73 145.95 384.65 141.5 386.47C137.05 388.29 132.23 383.12 138.32 378.4Z" fill="white"/>
<path d="M140.91 378C146.32 374.85 140.8 368 145.96 368.66C151.12 369.32 149.35 362.73 154.41 363.5C159.47 364.27 158.14 371.35 161.76 367.57C165.38 363.79 171.37 366.32 170.48 370.74C169.59 375.16 162.94 374.16 164.95 378.08C167.17 382.39 163.66 385.72 159.51 385.57C155.36 385.42 156.73 389.36 152.25 391.26C144.48 394.56 148.25 382.53 142.76 385.45C139.16 387.35 133.93 382 140.91 378Z" fill="#407BFF"/>
<path opacity="0.4" d="M142.4 377.71C147.1 375.16 142.63 369.13 146.99 369.84C151.35 370.55 150.05 364.84 154.32 365.63C158.59 366.42 157.23 372.45 160.42 369.3C163.61 366.15 168.61 368.47 167.71 372.24C166.81 376.01 161.21 374.98 162.8 378.39C164.54 382.14 161.46 384.9 157.94 384.67C154.42 384.44 155.46 387.84 151.6 389.36C144.91 391.99 148.45 381.78 143.73 384.14C140.62 385.7 136.35 381 142.4 377.71Z" fill="white"/>
<path opacity="0.3" d="M103.85 349.39V356.48C103.879 366.756 107.974 376.603 115.24 383.87C122.507 391.136 132.354 395.231 142.63 395.26V395.26C152.906 395.231 162.753 391.136 170.02 383.87C177.286 376.603 181.381 366.756 181.41 356.48V349.39H103.85Z" fill="#407BFF"/>
<path opacity="0.5" d="M182.36 349.39H102.9C102.307 349.387 101.738 349.151 101.319 348.731C100.899 348.312 100.663 347.743 100.66 347.15V347.15C100.663 346.557 100.899 345.989 101.319 345.569C101.738 345.149 102.307 344.913 102.9 344.91H182.36C182.953 344.913 183.521 345.149 183.941 345.569C184.361 345.989 184.597 346.557 184.6 347.15V347.15C184.597 347.743 184.361 348.312 183.941 348.731C183.521 349.151 182.953 349.387 182.36 349.39V349.39Z" fill="#407BFF"/>
<path opacity="0.3" d="M143.709 387.346C147.953 382.458 144.165 372.22 135.25 364.478C126.334 356.736 115.666 354.422 111.422 359.309C107.179 364.197 110.966 374.435 119.881 382.177C128.797 389.919 139.465 392.233 143.709 387.346Z" fill="white"/>
<path opacity="0.3" d="M153.19 374C150.19 375.31 146.44 373.34 144.8 369.59C143.16 365.84 144.25 361.75 147.25 360.44C150.25 359.13 154 361.1 155.64 364.84C157.28 368.58 156.18 372.64 153.19 374Z" fill="white"/>
<path opacity="0.3" d="M420.33 354.86H383.22L387 392.92C387.062 393.561 387.361 394.156 387.838 394.588C388.315 395.021 388.936 395.261 389.58 395.26H414C414.644 395.261 415.265 395.021 415.742 394.588C416.219 394.156 416.518 393.561 416.58 392.92L420.33 354.86Z" fill="#407BFF"/>
<path opacity="0.3" d="M390.41 386.9L387.64 358.9C387.64 358.9 394.97 363.2 402.07 361.11C406.582 359.825 411.232 359.083 415.92 358.9L413.14 386.9C413.021 388.095 412.462 389.204 411.571 390.009C410.68 390.815 409.521 391.261 408.32 391.26H395.23C394.029 391.259 392.872 390.812 391.982 390.007C391.091 389.201 390.531 388.094 390.41 386.9V386.9Z" fill="#407BFF"/>
<path opacity="0.5" d="M401.48 361.07C396.971 359.785 392.325 359.043 387.64 358.86C387.64 358.86 394.77 363.03 401.78 361.14L401.48 361.07Z" fill="#407BFF"/>
<path opacity="0.3" d="M420.77 355.86H382.77C382.402 355.858 382.049 355.717 381.782 355.464C381.514 355.212 381.353 354.867 381.33 354.5L380.4 337.57C380.389 337.375 380.418 337.18 380.485 336.997C380.552 336.813 380.655 336.645 380.789 336.503C380.923 336.361 381.084 336.248 381.263 336.17C381.442 336.092 381.635 336.051 381.83 336.05H421.7C421.896 336.051 422.089 336.092 422.268 336.17C422.448 336.247 422.61 336.361 422.744 336.503C422.879 336.645 422.983 336.812 423.051 336.996C423.119 337.179 423.149 337.375 423.14 337.57L422.2 354.5C422.18 354.866 422.02 355.211 421.755 355.463C421.489 355.716 421.137 355.858 420.77 355.86V355.86Z" fill="#407BFF"/>
<path d="M254.82 193.451C253.701 193.444 252.583 193.344 251.48 193.151C251.405 193.137 251.332 193.109 251.267 193.068C251.203 193.026 251.147 192.972 251.103 192.909C251.059 192.846 251.028 192.774 251.013 192.699C250.997 192.624 250.996 192.546 251.01 192.471C251.022 192.395 242.96 201.065 243 201C243.041 200.935 251.183 192.138 251.246 192.094C251.308 192.05 251.379 192.019 251.454 192.003C251.528 191.987 251.605 191.986 251.68 192.001C254.11 192.485 258.231 193.136 260.618 192.471C263.005 191.805 263.591 189.842 265.42 188.171C265.531 188.061 265.68 188 265.835 188C265.991 188 275.89 193.341 276 193.451C276.109 193.561 266.421 188.43 266.421 188.586C266.421 188.741 266.36 188.89 266.25 189.001C263.163 191.912 259.064 193.508 254.82 193.451Z" fill="#263238"/>
</svg>
